<svg width="93" height="47" fill="none" xmlns="http://www.w3.org/2000/svg"><path d="M40.557 18.477c-8.934 3.71-12.02 4.476-19.571 8.632-7.673 4.224-12.53 6.933-19.259 13.184-3.061 1.794 1.147 8.48 3.978 5.213 5.882-3.49 12.893-7.06 18.776-10.55 5.882-3.49 13.117-6.17 19.6-8.473 10.438-3.71 20.94-4.662 30.485-4.346-5.882 3.49-8.713 6.757-11.544 10.025-2.83 3.268.09 7.349 3.983 6.019 6.331-4.389 6.294-4.91 11.126-9.19 1.941-1.719 3.162-2.848 6.961-5.481l4.732-2.479c2.904-2.266 2.734-4.61 1.022-6.2C81.25 9.401 74.661.691 64.304.917c-3.052.222-3.452 1.299-2.646 3.86 2.154 2.805 2.898 3.537 9.222 6.142l4.668 2.019c-12.427-2.162-23.006 1.607-34.991 5.539z" fill="#FD2828"/></svg>