<svg width="101" height="59" fill="none" xmlns="http://www.w3.org/2000/svg"><path d="M56.203 25.653c8.57 4.811 11.594 5.954 18.715 11.05 7.238 5.178 11.815 8.493 17.857 15.604 2.875 2.176-2.17 8.42-4.636 4.784-5.518-4.224-12.166-8.665-17.685-12.889C64.936 39.98 57.956 36.41 51.69 33.31c-10.089-4.99-20.572-7.207-30.241-8.029 5.518 4.224 7.984 7.86 10.45 11.496 2.465 3.636-.969 7.404-4.738 5.596-5.864-5.184-5.764-5.706-10.128-10.601-1.754-1.968-2.85-3.253-6.37-6.364l-4.478-3.067c-2.658-2.633-2.207-4.979-.29-6.378C16.227 11.633 23.917 3.63 34.34 5.096c3.053.588 3.328 1.723 2.209 4.21-2.509 2.575-3.348 3.224-10.04 5.096l-4.952 1.48c12.798-.697 23.022 4.371 34.646 9.77z" fill="#FD2828"/></svg>