<svg width="45" height="62" viewBox="0 0 45 62" fill="none" xmlns="http://www.w3.org/2000/svg">
<path d="M35.7069 55.114C35.7069 52.4558 37.9828 50.1773 40.6379 50.1773H5.93103C3.27586 50.1773 1 52.4558 1 55.114C1 57.7722 3.27586 60.0507 5.93103 60.0507H40.6379C37.9828 60.0507 35.7069 57.9621 35.7069 55.114Z" stroke="#FD6709" stroke-width="2" stroke-miterlimit="10" stroke-linecap="round" stroke-linejoin="round"/>
<path d="M10.293 55.114H31.155" stroke="#FD6709" stroke-width="2" stroke-miterlimit="10" stroke-linecap="round" stroke-linejoin="round"/>
<path d="M5.74146 50.1773V59.671" stroke="#FD6709" stroke-width="2" stroke-miterlimit="10" stroke-linecap="round" stroke-linejoin="round"/>
<path d="M13.1379 40.4938H7.06897C4.4138 40.4938 2.13794 38.2153 2.13794 35.5571C2.13794 32.8988 4.4138 30.6204 7.06897 30.6204H40.2586C37.6035 30.6204 35.3276 32.8988 35.3276 35.5571C35.3276 38.2153 37.6035 40.4938 40.2586 40.4938H19.7759" stroke="#FD6709" stroke-width="2" stroke-miterlimit="10" stroke-linecap="round" stroke-linejoin="round"/>
<path d="M9.72412 35.5571H32.862" stroke="#FD6709" stroke-width="2" stroke-miterlimit="10" stroke-linecap="round" stroke-linejoin="round"/>
<path d="M6.3103 40.4938V31.0001" stroke="#FD6709" stroke-width="2" stroke-miterlimit="10" stroke-linecap="round" stroke-linejoin="round"/>
<path d="M12.9483 40.4938H8.39661C5.74144 40.4938 3.46558 42.7723 3.46558 45.4305C3.46558 48.0887 5.74144 50.3672 8.39661 50.3672H43.1035C40.4483 50.3672 38.1725 48.0887 38.1725 45.4305C38.1725 42.7723 40.4483 40.4938 43.1035 40.4938H28.3104" stroke="#FD6709" stroke-width="2" stroke-miterlimit="10" stroke-linecap="round" stroke-linejoin="round"/>
<path d="M21.862 40.4938H19.3965" stroke="#FD6709" stroke-width="2" stroke-miterlimit="10" stroke-linecap="round" stroke-linejoin="round"/>
<path d="M8.77588 40.4938V49.7976" stroke="#FD6709" stroke-width="2" stroke-miterlimit="10" stroke-linecap="round" stroke-linejoin="round"/>
<path d="M16.1724 35.5571L19.0172 35.7469V42.2026L16.1724 40.4938L13.1379 42.2026V35.7469L16.1724 35.5571Z" stroke="#FD6709" stroke-width="2" stroke-miterlimit="10" stroke-linecap="round" stroke-linejoin="round"/>
<path d="M39.6897 18.8482V11.2533" stroke="#FD6709" stroke-width="2" stroke-miterlimit="10" stroke-linecap="round" stroke-linejoin="round"/>
<path d="M30.5862 15.6203L39.6896 10.8735L22.0517 1.94946L4.22412 10.8735L12 14.8609V22.4558H11.8103L21.2931 26.2533L30.7758 22.4558H30.5862V15.6203Z" stroke="#FD6709" stroke-width="2" stroke-miterlimit="10" stroke-linecap="round" stroke-linejoin="round"/>
<path d="M12.1897 15.0507L18.4483 17.7089" stroke="#FD6709" stroke-width="2" stroke-miterlimit="10" stroke-linecap="round" stroke-linejoin="round"/>
</svg>
