<svg width="45" height="62" fill="none" xmlns="http://www.w3.org/2000/svg"><path d="M35.707 55.114c0-2.658 2.276-4.937 4.93-4.937H5.932C3.276 50.177 1 52.456 1 55.114c0 2.658 2.276 4.937 4.931 4.937h34.707c-2.655 0-4.931-2.089-4.931-4.937zm-25.414 0h20.862M5.741 50.177v9.494m7.397-19.177H7.069c-2.655 0-4.931-2.279-4.931-4.937 0-2.658 2.276-4.937 4.931-4.937h33.19c-2.656 0-4.931 2.279-4.931 4.937 0 2.658 2.275 4.937 4.93 4.937H19.777M9.724 35.557h23.138M6.31 40.494V31" stroke="#FD6709" stroke-width="2" stroke-miterlimit="10" stroke-linecap="round" stroke-linejoin="round"/><path d="M12.948 40.494H8.397c-2.656 0-4.931 2.278-4.931 4.937 0 2.658 2.275 4.936 4.93 4.936h34.707c-2.655 0-4.93-2.278-4.93-4.936 0-2.659 2.275-4.937 4.93-4.937H28.31m-6.448 0h-2.465m-10.621 0v9.304" stroke="#FD6709" stroke-width="2" stroke-miterlimit="10" stroke-linecap="round" stroke-linejoin="round"/><path d="M16.172 35.557l2.845.19v6.456l-2.845-1.71-3.034 1.71v-6.456l3.034-.19zM39.69 18.848v-7.595m-9.104 4.367l9.104-4.746-17.638-8.925-17.828 8.925L12 14.86v7.595h-.19l9.483 3.797 9.483-3.797h-.19V15.62zm-18.396-.57l6.258 2.659" stroke="#FD6709" stroke-width="2" stroke-miterlimit="10" stroke-linecap="round" stroke-linejoin="round"/></svg>