<svg width="27" height="27" fill="none" xmlns="http://www.w3.org/2000/svg"><path d="M13.3 25.6c6.793 0 12.3-5.507 12.3-12.3C25.6 6.507 20.093 1 13.3 1 6.507 1 1 6.507 1 13.3c0 6.793 5.507 12.3 12.3 12.3z" stroke="#6611F1" stroke-width="2" stroke-miterlimit="10" stroke-linecap="round" stroke-linejoin="round"/><path d="M13 6.3v7.4l4.5 4M13.3 3.9V2.7m0 21v-1.2m9.2-9.3h1.3m-21 0H4m15.8-6.5l.9-.9M5.9 20.6l.8-.8m13.1 0l.9.8M5.9 5.8l.8.9" stroke="#6611F1" stroke-width="2" stroke-miterlimit="10" stroke-linecap="round" stroke-linejoin="round"/></svg>