<svg width="34" height="35" fill="none" xmlns="http://www.w3.org/2000/svg"><path d="M16.774 34.151C7.54 34.151 0 26.525 0 17.184 0 7.844 7.54.218 16.774.218c9.234 0 16.774 7.626 16.774 16.966s-7.54 16.967-16.774 16.967zm0-32.648C8.218 1.503 1.27 8.53 1.27 17.184c0 8.655 6.947 15.682 15.503 15.682 8.556 0 15.503-7.027 15.503-15.682 0-8.654-6.947-15.68-15.503-15.68z" fill="#fff"/><path d="M13.809 27.037h3.897v-9.94h2.71l.255-3.342h-3.05V11.87c0-.771.17-1.114.932-1.114h2.118V7.33H17.96c-2.88 0-4.236 1.285-4.236 3.77v2.656h-2.033v3.342h2.033v9.94h.085z" fill="#fff"/></svg>