<svg width="31" height="31" fill="none" xmlns="http://www.w3.org/2000/svg"><path d="M15.5.65C7.316.65.65 7.316.65 15.5S7.316 30.35 15.5 30.35s14.85-6.666 14.85-14.85S23.684.65 15.5.65zm7.359 13.365c-.132-3.63-.858-6.765-2.046-9.108 3.465 1.749 5.94 5.115 6.435 9.108h-4.39zM10.154 4.907C8.999 7.25 8.24 10.385 8.108 14.015h-4.39a11.992 11.992 0 016.436-9.108zM8.14 16.985c.198 3.729 1.056 6.963 2.409 9.273-3.663-1.65-6.27-5.148-6.831-9.273H8.14zm7.359 9.9c-1.683 0-4.026-3.73-4.39-9.9h8.779c-.396 6.204-2.706 9.9-4.39 9.9zm-4.422-12.87C11.342 7.547 13.75 3.62 15.5 3.62c1.749 0 4.125 3.927 4.422 10.395h-8.844zm9.372 12.243c1.32-2.31 2.21-5.544 2.376-9.273h4.422c-.528 4.125-3.168 7.623-6.798 9.273z" fill="#6F00E2"/></svg>