<svg width="55" height="53" fill="none" xmlns="http://www.w3.org/2000/svg"><path d="M39.76 24.653V12.076C36.185 8.32 32.422 4.755 28.847 1H1v50.123h38.76V33.289" stroke="#FD6709" stroke-width="2" stroke-miterlimit="10" stroke-linecap="round" stroke-linejoin="round"/><path d="M39.007 12.451H28.094V1.188M5.704 8.321h17.874M5.704 14.329h17.874M5.704 20.711h29.352M5.704 26.906h11.665" stroke="#FD6709" stroke-width="2" stroke-miterlimit="10" stroke-linecap="round" stroke-linejoin="round"/><path d="M40.512 24.466l7.526-7.51.377-.375c.94-.938 2.634-.938 3.763 0 1.129 1.127 1.129 2.816 0 3.755l-7.715 7.697-3.95 4.13-7.903 8.072c-.188.187-.377.187-.377 0l-3.386-3.38c-.189-.187-.189-.375 0-.375l7.902-7.884 3.763-4.13zm11.478-3.567l-3.764-3.755m2.446 4.881l-3.575-3.566" stroke="#FD6709" stroke-width="2" stroke-miterlimit="10"/><path d="M30.352 38.357l8.467-8.26 3.763-3.942 6.209-6.007" stroke="#FD6709" stroke-width="2" stroke-miterlimit="10"/><path d="M28.659 36.292l-1.318 5.444 5.269-1.501" stroke="#FD6709" stroke-width="2" stroke-miterlimit="10" stroke-linejoin="round"/></svg>