<svg width="36" height="35" fill="none" xmlns="http://www.w3.org/2000/svg"><path d="M17.982 34.454C8.606 34.454.95 26.711.95 17.227.95 7.744 8.606 0 17.982 0c9.376 0 17.032 7.744 17.032 17.227 0 9.484-7.656 17.227-17.032 17.227zm0-33.149C9.294 1.305 2.24 8.44 2.24 17.227c0 8.788 7.054 15.922 15.742 15.922s15.741-7.134 15.741-15.922c0-8.787-7.053-15.922-15.741-15.922z" fill="#fff"/><path d="M17.982 9.745c2.409 0 2.667 0 3.613.087.86 0 1.376.174 1.634.348.43.174.688.348 1.032.696.345.348.517.609.689 1.044.085.348.258.783.344 1.653 0 .957.086 1.218.086 3.654 0 2.437 0 2.698-.086 3.655 0 .87-.172 1.392-.345 1.653a2.755 2.755 0 01-.688 1.044c-.344.348-.602.522-1.032.696-.344.087-.774.26-1.634.348-.946.087-1.204.087-3.613.087s-2.666 0-3.613-.087c-.86 0-1.376-.174-1.634-.348-.43-.174-.688-.348-1.032-.696a2.755 2.755 0 01-.688-1.044c-.087-.348-.258-.783-.345-1.653-.085-.957-.085-1.218-.085-3.655 0-2.436 0-2.697.085-3.654 0-.87.172-1.392.345-1.653.172-.435.344-.696.688-1.044.344-.348.602-.522 1.032-.696.344-.087.774-.261 1.634-.348.947-.087 1.204-.087 3.613-.087zm0-1.653c-2.409 0-2.752 0-3.699.087-.946.087-1.634.174-2.15.435-.602.26-1.118.522-1.548 1.044-.517.522-.775 1.044-1.033 1.566-.258.609-.344 1.218-.43 2.175-.086.957-.086 1.305-.086 3.741s0 2.785.086 3.742c.086.957.172 1.653.43 2.175.258.609.516 1.13 1.033 1.566.516.522 1.032.783 1.548 1.044.602.261 1.204.348 2.15.435.947.087 1.29.087 3.699.087s2.753 0 3.699-.087c.946-.087 1.634-.174 2.15-.435.602-.261 1.119-.522 1.549-1.044.516-.522.774-1.044 1.032-1.566.258-.61.344-1.218.43-2.175.086-.957.086-1.306.086-3.742s0-2.784-.086-3.74c-.086-.958-.172-1.654-.43-2.176-.258-.609-.516-1.131-1.032-1.566-.517-.522-1.033-.783-1.549-1.044-.602-.261-1.204-.348-2.15-.435-.946 0-1.29-.087-3.699-.087z" fill="#fff"/><path d="M17.982 12.528c-2.58 0-4.645 2.088-4.645 4.698 0 2.61 2.064 4.698 4.645 4.698 2.58 0 4.645-2.088 4.645-4.698-.086-2.61-2.15-4.698-4.645-4.698zm0 7.743c-1.634 0-3.01-1.392-3.01-3.045s1.376-3.045 3.01-3.045 3.01 1.392 3.01 3.045-1.376 3.045-3.01 3.045zm5.849-7.917c0 .61-.516 1.131-1.118 1.131-.602 0-1.118-.522-1.118-1.13 0-.61.516-1.132 1.118-1.132.602.087 1.118.522 1.118 1.131z" fill="#fff"/></svg>