<svg width="29" height="21" fill="none" xmlns="http://www.w3.org/2000/svg"><path d="M24.244 20.244a1.243 1.243 0 01-1.769 0 1.243 1.243 0 010-1.769c4.408-4.408 4.408-11.571 0-15.979a1.243 1.243 0 010-1.769c.232-.232.551-.377.87-.377.319 0 .638.116.87.377 5.394 5.394 5.394 14.152.029 19.517z" fill="#6611F1"/><path d="M20.097 16.126a1.243 1.243 0 01-1.769 0 1.243 1.243 0 010-1.769c2.117-2.117 2.146-5.597 0-7.714a1.243 1.243 0 010-1.769c.232-.232.551-.377.87-.377.319 0 .638.116.87.377 3.161 3.103 3.132 8.15.029 11.252zM6.525 18.475a1.243 1.243 0 010 1.769 1.243 1.243 0 01-1.77 0C-.608 14.879-.608 6.121 4.756.756c.233-.232.552-.377.87-.377.32 0 .639.116.87.377a1.243 1.243 0 010 1.769c-4.378 4.379-4.378 11.542.03 15.95z" fill="#6611F1"/><path d="M10.643 14.357a1.243 1.243 0 010 1.77 1.243 1.243 0 01-1.77 0c-3.102-3.104-3.102-8.15 0-11.253.233-.232.552-.377.87-.377.32 0 .639.116.87.377a1.243 1.243 0 010 1.77c-2.087 2.116-2.087 5.596.03 7.713zM14.5 8.383a2.117 2.117 0 110 4.234 2.117 2.117 0 010-4.234z" fill="#6611F1"/></svg>