<svg width="109" height="154" fill="none" xmlns="http://www.w3.org/2000/svg"><g clip-path="url(#clip0)"><path d="M34.8 82.3c1.9-1.6 3.8-3.2 5.6-4.8.6-.5 1.1-1 1.7-1.5l3.3-3c.8-.7 1.6-1.5 2.4-2.2l.2-.2c.2 2.6.5 5.1.7 7.7l-.3.3c-.3.2-.2.7 0 .9.1.1.3.2.4.2.1 1 .2 1.9.3 2.9-.2.3-.1.6.1.9.2 1.7.3 3.4.5 5 .3 3.4.6 6.8 1 10.2-.1.1-.2.3-.2.4 0 .2.1.3.2.4l.1.1c.1 1 .2 2 .3 2.9.1.7.1 1.3.2 2 0 .1-.1.2-.1.3 0 .1 0 .3.1.4.2 1.6.3 3.3.4 4.9-.1.2-.2.3-.2.5s.1.5.3.6c.1 1.4.3 2.8.4 4.2-.1.3-.1.6.1.8 0 .5.1.9.1 1.4.1.7.1 1.4.2 2.1l-.4.4c-.5.5-.5 1.3 0 1.8.2.2.4.3.6.3.3 3.5.5 6.9.8 10.4.2 2.4.3 4.8.5 7.2.1 1.1.2 2.2.2 3.3 0 .4.1.8.1 1.2-.3.4-.7.9-1 1.4-.4.5-.6 1.1-.9 1.7-.3.5-.4 1-.2 1.6.2.7.8 1.3 1.4 1.4.3.1.5.1.8.1.9 0 1.7-.6 1.9-1.5 0-.1.1-.2.1-.4.5-.8 1-1.5 1.6-2.3.8-1.1 1.6-2.1 2.4-3.2.3 0 .5-.1.8-.1 1.4-.4 2.7-.7 4.1-1.1-1.3 1.8-2.5 3.7-3.8 5.5-.2.3 0 .6.2.8.3.2.6.1.8-.2 1.5-2.2 3-4.3 4.5-6.5 1-.3 2.1-.5 3.1-.8.4-.1.7-.2 1.1-.2-2.5 2.7-5 5.3-7.5 8h-2c-1 0-2-.1-3-.1-1.2-.1-2.2 1-2.2 2.2 0 1.2 1 2.1 2.2 2.2 1.6.1 3.3.1 4.9.2 1 0 2 .1 2.9.1 1.5-.1 3-.1 4.5-.2.9 0 1.7-.1 2.6-.2 2.3-.2 4.5-.4 6.8-.7 0 .1-.1.1-.1.2-.2.3-.1.6.2.8.3.2.6.1.8-.2l.6-.9c2.1-.2 4.1-.4 6.2-.6.8-.1 1.7-.1 2.5 0 1.1 0 2-1 2-2 0-.4-.1-.8-.3-1.1.5-.1 1-.4 1.3-.9 1.2-2 2.6-4 4-5.9 1.4-1.9 2.8-3.7 4.2-5.5.1-.1.2-.3.3-.4 1.3-.2 2.5-.4 3.7-.9.3-.1.6-.3.9-.4.6-.3 1.1-.8 1.4-1.4.5-.9.7-2 .4-3-.3-1-.9-1.8-1.8-2.3-.5-.3-1-.4-1.6-.5 0-.2 0-.5-.1-.7-.2-.6-.5-1.1-1-1.5l-.3-1.5c-.1-.6-.2-1.2-.3-1.7-.2-1.2-.4-2.4-.6-3.5l-1.2-8.1c-.6-4.5-1.4-9-2.1-13.4-.4-2.4-.8-4.8-1.1-7.3-.4-2.5-.7-5-1.1-7.5l-.9-7.8c-.1-.9-.1-1.7-.2-2.6-.1-1.7-.3-3.5-.4-5.2-.2-2.1-.3-4.2-.4-6.3-.1-1.7-.2-3.5-.3-5.2 0-.6-.1-1.3-.1-1.9-.1-3-.1-6.1-.2-9.1 0-2.2 0-4.4.1-6.5 0-2 0-4.1.1-6.1.2-3.3.3-6.7.5-10 .1-2.2.4-4.3.6-6.5.2-1.7.3-3.4.5-5.1.6-.2 1.2-.6 1.7-1 .7-.6 1-1.6 1-2.5 0-.8-.3-1.9-1-2.5-.3-.2-.6-.4-.8-.6 0-.2.1-.3.1-.5.1-.5.1-.9-.2-1.4-.2-.4-.6-.7-1.1-.8-.1-.2-.3-.2-.4-.2-.3 0-.6.1-.9.2-.4.2-.7.6-.8 1.1 0 .3-.1.6-.1.9-.5 0-1.1.1-1.6.2-1.5.1-2.9.3-4.4.4-1.7 0-3.3.2-4.9.2-1.6 0-3.2.1-4.8 0-2.1-.1-4.1-.1-6.2-.2l-4.2-.3c-1.9-.1-3.7-.3-5.6-.4-2.2-.1-4.5-.4-6.7-.4h-.1c-1.1 0-2.2.1-3.3.3-1.2.2-2.4.4-3.4 1.1-.4.2-.7.5-1 .9-.3 0-.8.1-1 .4-.1.1-.2.2-.2.3-1.8 2.3-3.5 4.7-5.2 7-1.6 2.2-3.3 4.3-4.9 6.5l-4.2 5.4c-1 1.3-2 2.5-3.1 3.8-1 1.1-1.9 2.3-2.9 3.4-.5.6-.9 1.2-1.5 1.7-1.6 1.8-3.2 3.5-4.8 5.3-2.1 2.3-4.3 4.5-6.4 6.8-1.2 1.3-2.5 2.6-3.7 3.8L8.5 50c-.6.6-1.2 1.2-1.7 1.8-.2 0-.4.1-.6.2-.4.2-.7.6-.8 1-.5 2.8-.9 5.6-1.4 8.4-.4 2.6-.9 5.2-1.2 7.9-.2-.1-.5-.2-.7-.2-.7 0-1.3.4-1.7 1-.5.9-.2 2.1.7 2.6C4 74.5 7 76.3 9.9 78.1c1.8 1.1 3.5 2.3 5.2 3.5l2.7 2.1c.9.7 1.7 1.4 2.6 2.2.5.5 1 .9 1.5 1.4-.3.6-.5 1.2-.8 1.8-.2.5-.5 1.1-.7 1.6-.2.4-.3.7-.1 1.1.1.4.3.7.7.9.3.2.7.2 1.1.1.3-.1.7-.3.8-.6.1 0 .2-.1.2-.2.7-.6 1.4-1.1 2.1-1.7.2.2.4.3.6.5.6.5 1.4.7 2.1.3.1.1.2.1.3.1.5.1 1-.2 1.1-.6.4-1.6.9-3.2 1.3-4.7 1.2-1.2 2.7-2.4 4.2-3.6zm-13.7-.8c1-2 2-4.1 3-6.1.5-1 .9-1.9 1.4-2.9.2-.3.3-.6.4-1v-.1s.1 0 .1.1c-.4.5-.6 1.2-.6 1.8 0 .8.3 1.5.9 2.1.1.1.2.2.4.3l-3.3 7.8c-.8-.6-1.5-1.3-2.3-2zm-2.4-1.8h.2c.2-.1.4-.2.5-.4.3-.8.7-1.6 1-2.4 0 .1-.1.1-.1.2.7-1.7 1.5-3.4 2.2-5.1.3-.7.6-1.5.9-2.2.5.4 1.1.8 1.6 1.2-.2.4-.3.7-.5 1.1-.5.9-.9 1.9-1.4 2.8-1 2-2 4-2.9 6-.5-.5-1-.9-1.5-1.2zm7 5.8s0-.1.1-.1c-.1 0-.1 0-.1.1zm0 0s-.1 0 0 0c-.1 0-.1 0 0 0-.1 0-.1 0 0 0zm-.1.1s0-.1 0 0c0-.1 0-.1 0 0v-.1c0-.1.1-.2.1-.3 0 0 0 .1-.1.1v-.1l.3-.6c0 .1-.1.2-.1.3.2-.4.4-.9.5-1.3 0 .1-.1.2-.1.3l.3-.6v.1s0-.1.1-.1c.1-.3.3-.6.4-1 0 .1-.1.2-.1.2s0-.1.1-.1v-.1c0-.1.1-.2.1-.2 0 .1-.1.2-.1.2 0-.1.1-.2.1-.3 0 0 0 .1-.1.1.1-.2.1-.3.2-.5 0 .1-.1.2-.1.3.1-.2.1-.3.2-.5v-.1c0 .1-.1.2-.1.3l2.4-5.7c.4-.2.7-.4 1-.6.3-.2.6-.5.8-.7-.9 3.2-1.7 6.4-2.6 9.6-.8.7-1.7 1.4-2.5 2-.2 0-.4-.3-.7-.6zm8.8-5.7c-1 .9-2.1 1.7-3.1 2.6.5-2 1.1-4.1 1.6-6.1.3-1 .5-2 .8-3.1V73c.7-.6 1.4-1.1 2.1-1.7l-3.6 8.1c-.1.1-.1.3-.1.4 0 .1.1.3.3.3.3.1.7.1.8-.2 1-2.1 2-4.2 2.9-6.4.6-1.4 1.2-2.7 1.8-4.1l1.8-1.5c-.2.5-.4.9-.5 1.4-.9 2.4-1.7 4.8-2.5 7.2-.1.3.1.7.5.8h.3c-.2.2-.4.3-.6.5-.9.7-1.7 1.4-2.5 2.1zm5.7-4.9c-.7.6-1.5 1.3-2.2 1.9.8-2.4 1.6-4.7 2.5-7.1L41 68c.1-.4.3-.8.4-1.2.1-.2.2-.5.3-.7.3-.3.6-.6.9-.8.8-.8 1.6-1.5 2.4-2.3-.5 1.2-.9 2.4-1.4 3.7-.8 2.3-1.7 4.7-2.4 7.1v.3c-.3.2-.7.5-1.1.9zm4.2-3.8c1.4-3.7 2.8-7.5 4.3-11.2.1-.2 0-.5 0-.7 1-1.1 2.1-2.2 3.1-3.4.2-.2.3-.4.5-.6-.6 1.4-1.1 2.7-1.7 4.1-1.3 2.8-2.5 5.6-3.9 8.4-.2.4-.3.8-.2 1.2-.3.3-.6.5-.9.8-.4.6-.8 1-1.2 1.4zm12.2 70.3c0-.3-.1-.6-.1-.9l.3.6c0 .1-.1.2-.2.3zm-1.7-20.3c.8-.8 1.7-1.6 2.5-2.4.5-.4.9-.9 1.4-1.3.5-.5 1-1 1.6-1.5 0 1.5.1 3.1.1 4.6-1.7 1.7-3.5 3.5-5.1 5.2-.2-1.5-.3-3-.5-4.6zM53 101.9c-.1-1.2-.2-2.4-.4-3.6 1.3-1.6 2.5-3.2 3.8-4.8.7-.9 1.4-1.8 2.2-2.6.3-.4.6-.7.9-1.1.1 1.5.1 3 .2 4.5l-.1.1c-.3.3-.6.7-.9 1.1-.7.9-1.4 1.7-2.2 2.6-1.2 1.4-2.4 2.8-3.5 4.3.1-.2 0-.4 0-.5zm3.3 36.8c-.1-.6-.1-1.3-.2-1.9.3-.3.7-.6 1-1l1.2-1.2c.8-.9 1.7-1.7 2.5-2.6v.5c.1.5.1 1.1.2 1.6 0 .2.1.5.1.7-.7.2-1.3.4-2 .5-1.5.6-2.6 1.9-2.8 3.4zm-.5-5.7c1.6-1.5 3.2-2.9 4.8-4.4 0 .5 0 .9.1 1.4v.4c-.2 0-.3.1-.4.2-.9 1.1-1.9 2.1-2.9 3.1l-1.2 1.2-.2.2c-.1-.8-.1-1.5-.2-2.1zm4.7-8.1c0 .8 0 1.6.1 2.4-.1 0-.3.1-.4.2-1.5 1.4-3 2.7-4.5 4.1-.1-1.2-.2-2.4-.3-3.7 1.7-1.8 3.4-3.5 5-5.3.1.8.1 1.5.1 2.3zm-7.2-20.2c1.5-1.8 3-3.6 4.5-5.5.7-.8 1.4-1.7 2.1-2.5 0 1.4.1 2.8.1 4.2-.1 0-.3.1-.4.2-.3.2-.5.5-.8.7l-.6.6c-.3.3-.5.6-.7.8l-1.8 2.1c-.7.8-1.4 1.7-2.1 2.5-.1-.9-.2-2-.3-3.1zm.5 5.7c1-1.2 2-2.5 3-3.7.6-.7 1.2-1.4 1.7-2.1.5-.6.9-1.2 1.4-1.7 0 1.1.1 2.3.1 3.4-1.3 1.4-2.5 2.8-3.7 4.3-.8.9-1.6 1.9-2.3 2.8 0-1-.1-2-.2-3zm-2.1-22.1c-.2-1.9-.4-3.7-.5-5.6l2.8-2.8 1.6-1.6.6-.6c.4-.4.8-.7 1.2-1.1.2-.2.3-.6.1-.8-.1-.2-.2-.3-.4-.3h-.2c-.1 0-.2 0-.3.1-.3.2-.6.4-.9.7l-.3.3c-.3.2-.5.5-.8.7L53 78.9c-.7.6-1.3 1.3-1.9 1.9-.1-.8-.2-1.7-.2-2.5 2.5-2.3 4.9-4.7 7.4-7 .2 1.6.3 3.2.5 4.8.2 2 .3 4 .5 6-.1-.1-.2-.1-.3-.1-.2 0-.4.1-.6.2-.2.2-.5.4-.7.7l-.6.6c-.3.3-.5.6-.7.9-.6.7-1.1 1.3-1.6 2-.9 1.1-1.8 2.3-2.7 3.4-.3-.5-.3-1-.4-1.5zm-1.9-19.4c.3-.2.5-.5.8-.7.4-.4.4-1.1 0-1.5.5-1.2 1.1-2.3 1.6-3.5L54 59c.7-1.6 1.3-3.2 2-4.8.4 2.7.7 5.4 1 8.1-.3.3-.6.6-.8 1-.8.9-1.6 1.8-2.3 2.7-1.3 1.5-2.6 2.9-3.9 4.4-.1-.5-.1-1-.2-1.5zm.3 3.3c1.6-1.8 3.2-3.6 4.8-5.5.8-.9 1.6-1.8 2.3-2.8l.6 4.5c.1.4.1.8.1 1.2-2.5 2.3-4.9 4.6-7.4 6.9-.1-1.4-.2-2.8-.4-4.3zm2 20.1c1.2-1.6 2.4-3.1 3.7-4.7 1.1-1.4 2.2-2.8 3.4-4.2.1 1.6.2 3.1.3 4.7-.2.2-.4.4-.6.7-.3.4-.7.8-1 1.2-.8.9-1.5 1.8-2.2 2.7-1.1 1.3-2.1 2.6-3.1 3.9-.2-1.5-.4-2.9-.5-4.3zm2.4 25.2c-.1-.7-.1-1.3-.2-2l3.3-3.9c.7-.9 1.5-1.8 2.2-2.6.1-.1.2-.3.3-.4 0 1.6.1 3.1.1 4.7-.7.2-1.2.7-1.8 1.2-.4.3-.8.7-1.1 1-.6.5-1.1 1-1.7 1.5-.4.3-.7.7-1.1 1v-.5zm11.6 31.2h-.9c2.7-2.8 5.3-5.7 7.9-8.5 1.1-.3 2.3-.5 3.4-.8-1.9 2.3-3.7 4.6-5.5 6.9-.6.8-1.2 1.5-1.8 2.3-1 .1-2.1.2-3.1.1zm17.3-1.3h-.5c-1 .1-1.9.2-2.9.3 1.1-1.5 2.2-3.1 3.4-4.6.7-.9 1.4-1.9 2.1-2.9.3-.4.5-.7.8-1.1.4-.6.9-1.2 1.3-1.9.9-.1 1.8-.3 2.6-.4l-.9 1.2c-.3.5-.7 1-1 1.4-.3.4-.5.7-.8 1.1-.7 1.1-1.5 2.3-2.2 3.4-.2.3-.4.6-.5.9-.4.7-.9 1.4-1.3 2.1 0 .3 0 .4-.1.5zm-6.6.7c-.9.1-1.8.2-2.7.2 3.1-3.4 6.1-6.8 9.2-10.2.1 0 .3 0 .4-.1.7-.1 1.4-.2 2.1-.4-.1.1-.2.2-.3.4-.4.5-.7 1-1.1 1.5-.7 1-1.5 2-2.2 2.9-1.4 1.8-2.7 3.7-4.1 5.5-.4.1-.9.1-1.3.2zm-6.1.5c.7-.9 1.4-1.7 2.1-2.6.7-.9 1.4-1.8 2.2-2.7 1.1-1.4 2.3-2.8 3.4-4.2.2-.1.4-.1.7-.2.6-.1 1.3-.3 1.9-.4-1.6 1.7-3.2 3.5-4.7 5.2-1.3 1.4-2.6 2.9-3.9 4.3-.1.1-.2.3-.2.5-.6 0-1 .1-1.5.1zm17.8-1.5c.3-.3.6-.7.8-1l1.8-2.1c.2-.3.4-.6.7-.8-.5.7-.9 1.5-1.3 2.2-.3.6-.3 1.3 0 1.8-.7-.1-1.4-.1-2-.1zm6.9-9.1c0-.1-.1-.2-.2-.3-.1-.1-.2-.1-.3-.1-.2 0-.4.1-.5.3-.3.4-.5.8-.8 1.1-.2.3-.4.5-.6.8-.4.5-.8 1.1-1.3 1.6-.6.7-1.1 1.4-1.7 2.1l-3 3.6h-.4c-.6 0-1.1.1-1.7.1.5-.8 1-1.7 1.5-2.5.2-.4.5-.7.7-1.1.5-.7.9-1.4 1.3-2.1.6-.9 1.2-1.9 1.9-2.8.3-.5.7-.9 1-1.4.2-.2.3-.5.5-.7 1.6-.2 3.2-.4 4.7-.6h.2l-.9 1.2c-.1.3-.3.5-.4.8zM26.9 35.9c1.1-1.3 2.2-2.7 3.4-4 1.3-1.6 2.6-3.1 3.8-4.7 1.6-2.1 3.2-4.2 4.8-6.2 1.1-1.5 2.2-2.9 3.3-4.4 1.2-1.6 2.3-3.2 3.5-4.8l2.1-3c0-.1.1-.1.1-.2v-.1c.1-.1.2-.2.2-.3 1 1.3 2.9 1.7 4.4.8h.1c.4-.1.9-.2 1.3-.3 3.3-.3 6.6.2 9.8.5 2.1.2 4.1.3 6.2.5 3 .3 6.1.4 9.1.6 1.1.1 2.2.1 3.3.1h1.6c1.5 0 3 0 4.5-.1 1.4 0 2.8-.1 4.2-.2.2 0 .4 0 .7-.1 0 .4-.1.8-.1 1.2-.3 2.8-.6 5.5-.8 8.3-.1.7-.1 1.4-.1 2.1-.1 1.7-.2 3.5-.3 5.2-.1 2.1-.3 4.2-.3 6.3-.1 3-.1 6-.2 8.9v7.5c0 1.9 0 3.9.1 5.8.1 3.1.3 6.2.4 9.2.1 2.5.3 5 .4 7.5.1 2.4.4 4.7.6 7 .4 4.8 1 9.5 1.7 14.3.5 3.9 1.1 7.8 1.6 11.7.6 4.9 1.3 9.9 1.9 14.8.2 1.1.3 2.3.5 3.4.1.8.2 1.5.3 2.3.1.6.2 1.3.3 1.9-.2 0-.3 0-.5.1-1.9.2-3.8.5-5.6.8-1.6.2-3.1.4-4.7.7-2.1.4-4.1.7-6.2 1.1-1.4.2-2.8.4-4.2.7-1.6.4-3.2.8-4.8 1.1-2.3.5-4.6 1.1-6.9 1.6-.1 0-.3.1-.4.1-.1-.9-.1-1.7-.2-2.6-.1-1.3-.2-2.7-.3-4-.2-2.2-.3-4.4-.4-6.6-.2-5.1-.3-10.1-.5-15.2-.1-3-.2-6-.3-8.9-.1-2.6-.3-5.3-.4-7.9-.1-2.3-.3-4.7-.5-7s-.4-4.6-.7-6.9c-.2-2.2-.5-4.4-.7-6.6-.4-2.8-.7-5.6-1.1-8.4-.5-4.2-1.1-8.4-1.7-12.6.4-.6.8-1.2 1.1-1.8.7-1.4.3-3.1-1-3.9-.4-.3-.9-.4-1.4-.4-1 0-1.9.5-2.5 1.4-.3.5-.6.9-.9 1.4-2.3 2.9-4.8 5.6-7.2 8.4-2.9 3.3-6 6.4-9.2 9.4-2.4 2.2-4.9 4.4-7.5 6.5-.4-.6-.8-.9-1.4-1.1.1 0 .1 0 .2.1-.8-.4-1.6-1-2.3-1.5-.4-.3-.9-.6-1.3-.9-1-.7-2.1-1.4-3.1-2.1-1.7-1.1-3.4-2.3-5.1-3.5-2.1-1.7-4.1-3.4-6.1-5.2 5.1-6 10.3-11.8 15.4-17.8zM14 63.1c.1.1.3.2.4.4.2.2.5.3.7.5-1.2 2.7-2.3 5.5-3.5 8.2.4-1.6.9-3.2 1.3-4.8.4-1.5.8-2.9 1.1-4.3zm-8.9 7.7c.3-.2.5-.5.6-.8.9-4 1.6-8 2.2-12 1.2 1.1 2.5 2.2 3.8 3.2.2.2.5.4.7.6-.5 1.7-.9 3.3-1.4 5l-1.8 6.6c-.5-.3-1.1-.7-1.6-1-.8-.6-1.6-1.1-2.5-1.6zm7.9 4.8c-.2-.2-.5-.3-.7-.5.9-2.2 1.9-4.4 2.8-6.6.4-1 .8-1.9 1.2-2.9.1-.3.2-.5.3-.8.1.1.3.2.4.3.6.5 1.2.9 1.9 1.3-.2.7-.3 1.3-.5 2-.1.5-.2.9-.4 1.4-.2.5-.3 1-.5 1.5-.6 2-1.3 3.9-1.9 5.9-.9-.4-1.8-1-2.6-1.6zm3.5 2.4c.7-2.1 1.4-4.2 2-6.3.2-.5.3-1 .5-1.5.1-.4.2-.9.4-1.4.1-.5.3-1.1.4-1.6.5.3 1 .7 1.5 1 .2.2.5.3.7.5-.5 1.1-1 2.3-1.5 3.4V72l-2.7 6.3c-.1.2-.1.4-.1.6-.3-.3-.7-.6-1.2-.9zm11.4 10.1l-.1-.1c.1 0 .1-.1.2-.1 0 .1 0 .1-.1.2z" fill="#5D06EA"/></g><defs><clipPath id="clip0"><path fill="#fff" d="M0 0h108.9v153.2H0z"/></clipPath></defs></svg>