<svg width="105" height="135" fill="none" xmlns="http://www.w3.org/2000/svg"><g clip-path="url(#clip0)"><path d="M56.8 133.715c5.3-.2 10.7-.4 16-.5 5.4-.1 10.7-.3 16.1-.5 1.4-.1 2.9-.2 4.3-.3 1.9-.1 3.8-.3 5.6-.7.8-.2 1.599-.5 2.299-.9.3-.2.7-.4.9-.7.3-.3.7-.7.9-1.1.7-1.3 1.1-2.8 1.1-4.3 0-1.3-.1-2.5-.1-3.8-.1-5.6.4-11.1 1-16.7.1-.6-.3-1.3-.7-1.6-.4-.4-1-.7-1.6-.7-.3 0-.6.1-.9.2h-.1c-.4-.1-.9-.3-1.3-.5-2.5-1.1-5-2.4-7.4-3.7-1.4-.7-2.8-1.4-4.3-2.1.7-.2 1.4-.5 2.2-.7 1.2-.3 2.2-.7 3.2-1.1.3-.1.6-.3.8-.6.2-.3.2-.7.1-1.1-.2-.6-.7-1-1.3-1h-.3c-2.9.8-5.8 1.6-8.7 2.5-.3-.1-.5-.3-.8-.4-.3-.1-.6-.2-1-.2-.1 0-.3 0-.4.1-.5.1-.8.4-1.1.8-.1.3-.2.6-.2.9-.8.3-1.6.5-2.4.8-.8.3-1.6.5-2.4.7-.6.2-1.2.4-1.8.5-1.6.4-3.1.9-4.7 1.2-1.2.2-2.4.5-3.6.7-.2-.2-.4-.3-.6-.3-.2 0-.5.1-.7.3-.1.1-.1.2-.2.3-1.9.3-3.7.6-5.6.9-.2 0-.4.1-.6.1-.3-.3-.7-.6-1-.9-.3-.3-.6-.4-1-.4-.3 0-.7.1-.9.4-.3.3-.5.9-.3 1.3-.2 0-.5.1-.7.1-.6.1-1.1.2-1.7.2 2.2-1.5 4.3-3 6.4-4.6 2-1.5 4-3 5.9-4.5.9-.7 1.7-1.5 2.6-2.2.8-.7 1.6-1.5 2.4-2.2 1.4-1.4 2.8-2.8 4.1-4.3 1.5-1.7 3-3.4 4.4-5.2 0 0 0 .1-.1.1.1-.1.1-.2.2-.3v-.1c2.7-3.5 5.4-7.1 8.1-10.7 2.5-3.4 4.8-7 6.8-10.8 1.1-2 2.1-4 2.9-6.1.4-1 .8-2 1.1-3 .5-1.6 1-3.2 1.4-4.8.4-1.5.6-3.1.8-4.7.2-1.4.3-2.8.3-4.3v-3.2c-.1-1.1-.1-2.2-.2-3.3l-.3-2.1c-.2-1.2-.4-2.5-.7-3.7-.3-1.4-.8-2.7-1.3-4-.6-1.5-1.3-3-2.2-4.4-.8-1.2-1.7-2.4-2.7-3.5-1.1-1.2-2.5-2.3-3.9-3.2-2-1.2-4.1-2.2-6.2-3.1-.6-.2-1.1-.5-1.7-.7-1.2-.2-2.6-.6-4-.9-1.5-.3-3.1-.5-4.7-.6h-1.2c-1.4 0-2.7.1-4.1.3-1.2.2-2.4.3-3.6.5-1 .1-2.1.3-3.1.5-.9.2-1.8.3-2.7.5-1.4.3-2.7.5-4.1.9-2.6.7-5.2 1.6-7.7 2.7-1.2.6-2.4 1.1-3.7 1.7-1 .4-1.9 1-2.8 1.5-1.9 1-3.8 2.1-5.6 3.2-.3.2-.5.3-.8.5-.7.4-1.3.9-2 1.3-1.2.8-2.5 1.6-3.7 2.5-2.1 1.5-4.1 3.1-6 4.8-1.9 1.7-3.7 3.6-5.6 5.4-.4.4-.6 1-.6 1.6-3.1 2.3-6.1 4.7-9.2 7-.3.2-.6.5-1 .7.1-.1.2-.2.4-.3-1.8 1.4-3.8 2.7-4.9 4.6-.9 1.5-.4 3.2.4 4.6.3.6.6 1.2 1 1.7 1.6 2.3 3.4 4.3 5.3 6.4l1.1 1.1 1.3 1.3c1.1.9 2.2 1.9 3.3 2.8 2.2 1.7 4.4 3.3 6.6 4.9.5.4 1.1.9 1.6 1.3.6.5 1.2 1.1 1.7 1.7.1.1.2.2.3.4-.1.2-.2.5-.2.8 0 .5.2.9.5 1.2.3.3.8.6 1.2.5 3.2-.4 6.5-.7 9.7-1.1.3 0 .7-.1 1-.1-.1.1-.1.3-.1.5 0 .3.1.6.4.9.2.2.5.4.8.4.3 0 .7-.1.9-.4.5-.6 1-1.2 1.4-1.7 1.6-.2 3.2-.5 4.7-.8.6-.1 1.1-.8 1.1-1.4 0-.7-.6-1.4-1.3-1.4h-.1c-.5 0-.9.1-1.4.1.3-.4.6-.7.9-1.1l4.8-5.4c1.6-1.8 3.2-3.6 4.8-5.3 1.6-1.7 3.3-3.4 5.1-4.9l1.2-.9c.8-.6 1.7-1.3 2.5-1.9.4-.3.9-.6 1.3-.9.5-.3 1-.6 1.5-.8.5-.2.9-.4 1.4-.6 2.3-.9 4.5-1.7 6.9-2.3.5-.1.8-.7.7-1.2-.1-.4-.5-.7-.9-.7h-.2c-1.3.3-2.6.8-3.9 1.2-1 .4-2.1.7-3.1 1.1-.1 0-.1 0-.2.1.2-.2.3-.4.3-.7 0-.3-.1-.6-.3-.8-.2-.2-.5-.3-.8-.3-.3 0-.6 0-.8-.1-.4-.1-.8-.1-1.2-.2-1.3-.2-2.6-.5-4-.7-1.1-.2-2.2-.5-3.3-.7.3-.2.6-.5.9-.7 1.2-.9 2.4-1.8 3.7-2.6 0 .3.1.6.2.8.2.3.5.6.9.7 4.3.7 8.7 1.5 13.1 2 .2 0 .4-.1.6-.2-.1.6-.2 1.1-.3 1.7-.3 1.2-.6 2.3-1 3.5-.3.9-.6 1.9-.9 2.8-.6 1.6-1.1 3.1-1.7 4.7-.9 2-2 4-3.3 5.8-.6.7-1.1 1.5-1.7 2.2-3.2 4-6.4 7.9-9.7 11.8-1.6 1.9-3.4 3.6-5.2 5.3-1.6 1.6-3.5 3-5.2 4.4-1 .7-1.9 1.4-2.9 2.1-.8.6-1.7 1.2-2.6 1.7-1.7 1.1-3.5 2.2-5.3 3.2l-2.7 1.5c-1 .5-1.9 1.1-2.9 1.5l-6 2.7c-1.2.5-2.5 1-3.7 1.5-.5.2-1.1.5-1.6.7-.3.2-.7.3-1 .5-.2.1-.5.2-.7.3-.5.2-.9.6-1.3.9-.4.3-.7 1-.9 1.4-.1.3-.2.5-.2.8-.1.5-.2 1.1-.2 1.6-.1.6-.1 1.2-.1 1.8v4.1c.1 2.5.2 5 .4 7.5.1 1.2.2 2.4.4 3.6.2 1.5.3 3.1.6 4.6.2 1.5.5 2.9.7 4.3.1.6.3 1.2.4 1.8l.6 2.7c.1.5.3 1 .5 1.4.2.4.5.7.7 1 .3.4 1.2.8 1.7 1 .4.1 1 .1 1.5.1.7 0 1.3-.1 2-.1 1.3 0 2.6.1 3.9.2 2.5.2 5 .5 7.4.5 2.6.1 5.2.1 7.7.1 5.2-.1 10.5-.3 15.8-.5zm38.2-30.6c-.5.1-1.1.1-1.6.2-1.9.2-3.8.4-5.8.7-.3 0-.5.1-.8.1l.1-.1c.2-.3.2-.6.1-1-.1-.3-.3-.5-.6-.7l-.1-.1c-.5-.5-1-1-1.4-1.5-.4-.4-.7-.8-1.1-1.2l-1.5-1.5c.4-.1.8-.3 1.2-.4.1 0 .2-.1.3-.1 2.7 1.3 5.4 2.6 8.1 4 1 .5 2 1 3.1 1.6zm-15.7-4.2c.8.9 1.7 1.7 2.5 2.6.4.4.7.8 1.1 1.1l.7.7c.2.2.4.4.7.5.2.2.4.3.7.4-1.5.2-3.1.4-4.6.6 0-.4-.1-.8-.4-1.1-1.4-1.3-2.7-2.6-4-3.9 1.1-.2 2.2-.5 3.3-.9zm-9.5 2.6c.6-.1 1.2-.2 1.7-.4.3-.1.7-.2 1-.3 1.5 1.5 3.1 3.1 4.7 4.5l-2.1.3c-.3 0-.5.1-.8.1v-.1c-.1-.2-.2-.4-.4-.5-.2-.2-.5-.4-.7-.5-1.3-1-2.5-2-3.8-3 .2-.1.3-.1.4-.1zm-2.9 5.2c-.1-.2-.2-.4-.4-.5-1.1-.6-2-1.3-3-2.1-.5-.4-1-.8-1.6-1.2l3.3-.6c.6-.1 1.3-.2 1.9-.3 1.7 1.4 3.4 2.7 5.2 4-1.8.3-3.6.5-5.4.7zm-8.7-3.2l.2.2c.7.6 1.4 1.1 2.2 1.7.8.6 1.7 1.2 2.6 1.8-.3 0-.6.1-.9.1-3.6.4-7.3.9-10.9 1.3-.1-.2-.3-.4-.5-.6-1.4-.8-2.8-1.7-4.2-2.6.1 0 .1-.1.2-.1h.3c1.1-.1 2.1-.3 3.2-.5 1.7.8 3.4 1.6 5.1 2.3.2.1.4.2.7.1.2-.1.4-.2.5-.4.2-.4.1-1-.3-1.2-.9-.4-1.8-.9-2.7-1.3 1.5-.3 3-.6 4.5-.8zm-14.6 3.8c.2-.1.4-.3.6-.4 1 .6 2.1 1.3 3.1 1.9-1 .1-2.1.2-3.1.2-.9.1-1.7.1-2.6.1-.3 0-.6 0-1 .1 1-.6 2-1.2 3-1.9zm-15.3-42.3c.3-.5.7-.9 1-1.4.6-.9 1.3-1.8 1.9-2.8 3.4-.1 6.7-.3 10.1-.4-1 1.2-2 2.3-3 3.5-3.2.4-6.6.8-10 1.1zm14.6-6.2c-.2-.4-.6-.7-1.1-.7h-2.4c-2 0-4.1.1-6.1.1.2-.2.3-.4.5-.7.7-.9 1.4-1.7 2.1-2.5h10.5c-1.3 1.2-2.4 2.5-3.5 3.8zm4.9-5.4c-.2-.3-.5-.5-.9-.5-3-.1-6-.1-9-.1.6-.7 1.3-1.4 1.9-2.1 2-.1 4-.2 6.1-.3 1-.1 1.9-.2 2.9-.3.4-.1.9-.1 1.3-.2.3-.1.6-.1 1-.2.1 0 .2 0 .2-.1-.8.9-1.7 1.8-2.5 2.7-.4.3-.7.7-1 1.1zm7.4-7.5c-.5.4-1 .9-1.5 1.4l-.9.9c-.2-.3-.4-.4-.7-.4h-.2c-.3.1-.6.1-1 .2s-.8.1-1.2.2c-.4.1-.9.1-1.3.1-.9.1-1.9.1-2.8.2-1.3.1-2.7.2-4 .2.8-.9 1.7-1.7 2.5-2.6.5-.5 1-1 1.6-1.5.2.1.4.2.7.2 3.2.2 6.4.5 9.6.5-.4.3-.6.4-.8.6zm-2.3-7.1c1.1.3 2.1.5 3.2.7.8.2 1.5.3 2.3.4 1.7.3 3.5.5 5.2.6-.3.1-.6.3-.9.4-1.1.5-2.2 1.1-3.2 1.8-.5.3-.9.6-1.4 1l-.1-.1c-.2-.2-.5-.3-.8-.3-1.8-.1-3.5-.3-5.3-.4-1.4-.1-2.7-.2-4.1-.3.6-.6 1.3-1.2 1.9-1.8.8-.8 1.7-1.5 2.6-2.2.2.1.4.2.6.2zm8.3-6.6c.6-.4 1.3-.7 1.9-1 1.5-.6 3.1-1.1 4.8-1.4.8-.1 1.5-.1 2.3 0 .5.1.9.2 1.4.4.3.1.5.3.8.5l.9.9c.2.3.4.5.5.8.1.3.2.7.3 1v1.2c-.2-.1-.3-.2-.5-.3-4.2-.7-8.3-1.4-12.4-2.1zm-28.1 96c-2.3-.2-4.7-.4-7-.6-1.1-.1-2.1-.2-3.2-.2h-1.7c-.1-.4-.1-.8-.2-1.2-.2-.7-.3-1.5-.5-2.2-.2-1.4-.5-2.9-.7-4.3-.2-1.5-.4-3-.5-4.5-.2-2.1-.3-4.1-.5-6.2-.1-1.7-.2-3.4-.2-5.1 0-.9-.1-1.8-.1-2.7 0-.7-.1-1.5-.2-2.2 1.1-.6 2.3-1.1 3.4-1.6 1-.5 2-.9 3-1.4 2.3-1.1 4.7-2.1 6.9-3.4 2.3-1.3 4.6-2.6 6.9-4.1 2.2-1.4 4.3-2.9 6.4-4.5 2.2-1.7 4.4-3.4 6.4-5.2 1.1-1 2.1-1.9 3.1-2.9.9-.9 1.8-1.9 2.7-2.8.9-1 1.7-2.1 2.6-3.1.8-1 1.6-1.9 2.3-2.9 1.7-2 3.3-4.1 4.9-6.2.9-1.1 1.7-2.3 2.6-3.4 1.8-2.5 3.1-5.2 4.2-8 1-2.6 1.9-5.3 2.7-8 .3-1.1.6-2.3.8-3.5.2-1 .3-1.9.5-2.9.2-1.7-.1-3.5-.9-5-.3-.6-.8-1.2-1.3-1.7-.6-.6-1.3-1.1-2-1.5-1.7-.8-3.6-1-5.4-.9-1.7.1-3.3.6-4.9 1.1-1.8.6-3.5 1.5-5.2 2.5-2.8 1.7-5.3 3.7-7.8 5.8-1 .8-1.9 1.7-2.9 2.5l-2.7 2.4c-1.9 1.8-3.8 3.6-5.6 5.5-1.8 1.9-3.6 3.9-5.3 5.9-1.7 2.1-3.4 4.2-4.9 6.4-1.1 1.6-2.1 3.2-3.3 4.8-.6-.8-1.3-1.5-2.1-2.1l-1.8-1.5c-1.2-.9-2.4-1.9-3.6-2.8-.9-.7-1.8-1.5-2.7-2.2-.5-.4-.9-.8-1.3-1.2-.4-.4-.8-.7-1.2-1.1-.8-.8-1.6-1.7-2.4-2.6-.7-.8-1.4-1.6-2-2.4-1.1-1.5-2.2-3-3.1-4.7 1-1.1 2.3-2.1 3.5-3 1-.8 2-1.5 3-2.3 2.3-1.8 4.5-3.6 6.8-5.3 4.1-3.3 8.2-6.5 12.3-9.8.1 0 .1-.1.2-.1-.1.1-.3.2-.4.3l1.5-1.2c.6-.5 1.2-.9 1.8-1.3.8-.5 1.1-1.4.8-2.3.5-.3 1.1-.7 1.6-1 1-.6 2-1.1 3.1-1.7 1.6-.9 3.2-1.7 4.8-2.5 1.3-.6 2.6-1.2 4-1.7 1.3-.5 2.6-1 3.9-1.4 1.2-.4 2.5-.8 3.8-1 1.2-.2 2.3-.5 3.5-.7 1.7-.3 3.5-.6 5.2-.9 1-.1 1.9-.2 2.9-.4 2.1-.3 4.3-.3 6.4-.1 2.1.3 4.1.9 6 1.6.8.3 1.6.6 2.3.9 2 .9 3.9 1.9 5.7 3.2 1 .9 1.9 1.8 2.8 2.9 1.1 1.5 1.9 3 2.7 4.7.4 1 .7 1.9 1 2.9.3 1 .6 2.1.8 3.2.1.9.3 1.7.4 2.6.1 1.2.3 2.4.3 3.6.1 2.7.2 5.3-.1 8-.3 2.4-1 4.7-1.6 7-.4 1.3-.8 2.5-1.3 3.7.1-.1.1-.3.2-.4-.4 1-.9 2-1.3 3-.4 1.1-1 2.1-1.5 3.1-.5 1.1-1.1 2.1-1.6 3.1s-1.1 1.9-1.7 2.8c-.6.9-1.2 1.8-1.8 2.8-.6.9-1.2 1.7-1.8 2.6-1.2 1.8-2.5 3.5-3.8 5.3-.9 1.3-1.9 2.5-2.9 3.8-.9 1.1-1.8 2.3-2.7 3.3-1.1 1.3-2.2 2.5-3.4 3.7l-1.8 1.8c-.6.6-1.3 1.2-1.9 1.8-1.1 1-2.3 2-3.5 3-1.8 1.3-3.5 2.7-5.3 3.9-1.7 1.3-3.5 2.5-5.3 3.7-2.2 1.5-4.4 3-6.7 4.6-.2.1-.5.2-.6.4-.5.4-1.1.7-1.6 1.1-.2-.1-.3-.2-.5-.3-.2-.1-.4-.2-.6-.2-.5 0-.9.3-1.2.7-.3.5-.2 1 .1 1.4-1.6 1.1-3.2 2.2-4.9 3.2-.5.3-.9.5-1.3.9-.5.5-.6 1.3-.5 1.9.1.4.3.6.6.9.3.3.6.4 1 .5.3.1.7.2 1 .2.5.1.9.1 1.4.1h3.2c2.2 0 4.5-.1 6.7-.3 2.1-.1 4.2-.3 6.2-.6 4.7-.5 9.3-.9 14-1.4 4.2-.4 8.3-.9 12.4-1.4 3-.4 6-.7 9-1 1.4-.1 2.9-.3 4.3-.4 1.7-.2 3.3-.3 5-.6-.3 2.9-.6 5.8-.8 8.8-.1 1.7-.1 3.3-.2 5v2.3c0 .9.1 1.8 0 2.7-.1.3-.1.5-.2.7-.1 0-.2.1-.2.1-.5.2-1.1.3-1.6.4-2.9.3-5.8.3-8.6.3-2.4 0-4.7.1-7.1.1-5.3 0-10.6 0-15.9.1-5.3.1-10.7.3-16 .5-2.9.1-5.8.2-8.7.2-2.5 0-5.1 0-7.5-.2z" fill="#5D06EA"/></g><defs><clipPath id="clip0"><path fill="#fff" transform="translate(0 .415)" d="M0 0h105v133.9H0z"/></clipPath></defs></svg>