<svg width="105" height="135" viewBox="0 0 105 135" fill="none" xmlns="http://www.w3.org/2000/svg">
<g clip-path="url(#clip0)">
<path d="M56.7992 133.715C62.0992 133.515 67.4992 133.315 72.7992 133.215C78.1992 133.115 83.4992 132.915 88.8992 132.715C90.2992 132.615 91.7992 132.515 93.1992 132.415C95.0992 132.315 96.9992 132.115 98.7992 131.715C99.5992 131.515 100.399 131.215 101.099 130.815C101.399 130.615 101.799 130.415 101.999 130.115C102.299 129.815 102.699 129.415 102.899 129.015C103.599 127.715 103.999 126.215 103.999 124.715C103.999 123.415 103.899 122.215 103.899 120.915C103.799 115.315 104.299 109.815 104.899 104.215C104.999 103.615 104.599 102.915 104.199 102.615C103.799 102.215 103.199 101.915 102.599 101.915C102.299 101.915 101.999 102.015 101.699 102.115C101.699 102.115 101.699 102.115 101.599 102.115C101.199 102.015 100.699 101.815 100.299 101.615C97.7992 100.515 95.2992 99.215 92.8992 97.915C91.4992 97.215 90.0992 96.515 88.5992 95.815C89.2992 95.615 89.9992 95.315 90.7992 95.115C91.9992 94.815 92.9992 94.415 93.9992 94.015C94.2992 93.915 94.5992 93.715 94.7992 93.415C94.9992 93.115 94.9992 92.715 94.8992 92.315C94.6992 91.715 94.1992 91.315 93.5992 91.315C93.4992 91.315 93.3992 91.315 93.2992 91.315C90.3992 92.115 87.4992 92.915 84.5992 93.815C84.2992 93.715 84.0992 93.515 83.7992 93.415C83.4992 93.315 83.1992 93.215 82.7992 93.215C82.6992 93.215 82.4992 93.215 82.3992 93.315C81.8992 93.415 81.5992 93.715 81.2992 94.115C81.1992 94.415 81.0992 94.715 81.0992 95.015C80.2992 95.315 79.4992 95.515 78.6992 95.815C77.8992 96.115 77.0992 96.315 76.2992 96.515C75.6992 96.715 75.0992 96.915 74.4992 97.015C72.8992 97.415 71.3992 97.915 69.7992 98.215C68.5992 98.415 67.3992 98.715 66.1992 98.915C65.9992 98.715 65.7992 98.615 65.5992 98.615C65.3992 98.615 65.0992 98.715 64.8992 98.915C64.7992 99.015 64.7992 99.115 64.6992 99.215C62.7992 99.515 60.9992 99.815 59.0992 100.115C58.8992 100.115 58.6992 100.215 58.4992 100.215C58.1992 99.915 57.7992 99.615 57.4992 99.315C57.1992 99.015 56.8992 98.915 56.4992 98.915C56.1992 98.915 55.7992 99.015 55.5992 99.315C55.2992 99.615 55.0992 100.215 55.2992 100.615C55.0992 100.615 54.7992 100.715 54.5992 100.715C53.9992 100.815 53.4992 100.915 52.8992 100.915C55.0992 99.415 57.1992 97.915 59.2992 96.315C61.2992 94.815 63.2992 93.315 65.1992 91.815C66.0992 91.115 66.8992 90.315 67.7992 89.615C68.5992 88.915 69.3992 88.115 70.1992 87.415C71.5992 86.015 72.9992 84.615 74.2992 83.115C75.7992 81.415 77.2992 79.715 78.6992 77.915C78.6992 77.915 78.6992 78.015 78.5992 78.015C78.6992 77.915 78.6992 77.815 78.7992 77.715C78.7992 77.715 78.7992 77.715 78.7992 77.615C81.4992 74.115 84.1992 70.515 86.8992 66.915C89.3992 63.515 91.6992 59.915 93.6992 56.115C94.7992 54.115 95.7992 52.115 96.5992 50.015C96.9992 49.015 97.3992 48.015 97.6992 47.015C98.1992 45.415 98.6992 43.815 99.0992 42.215C99.4992 40.715 99.6992 39.115 99.8992 37.515C100.099 36.115 100.199 34.715 100.199 33.215C100.199 32.115 100.199 31.115 100.199 30.015C100.099 28.915 100.099 27.815 99.9992 26.715C99.8992 26.015 99.7992 25.315 99.6992 24.615C99.4992 23.415 99.2992 22.115 98.9992 20.915C98.6992 19.515 98.1992 18.215 97.6992 16.915C97.0992 15.415 96.3992 13.915 95.4992 12.515C94.6992 11.315 93.7992 10.115 92.7992 9.01501C91.6992 7.81501 90.2992 6.71501 88.8992 5.81501C86.8992 4.61502 84.7992 3.61501 82.6992 2.71501C82.0992 2.51501 81.5992 2.21501 80.9992 2.01501C79.7992 1.81501 78.3992 1.41501 76.9992 1.11501C75.4992 0.815015 73.8992 0.615015 72.2992 0.515015C71.8992 0.515015 71.4992 0.515015 71.0992 0.515015C69.6992 0.515015 68.3992 0.615015 66.9992 0.815015C65.7992 1.01501 64.5992 1.11501 63.3992 1.31501C62.3992 1.41501 61.2992 1.61501 60.2992 1.81501C59.3992 2.01501 58.4992 2.11501 57.5992 2.31501C56.1992 2.61501 54.8992 2.81501 53.4992 3.21501C50.8992 3.91501 48.2992 4.81501 45.7992 5.91501C44.5992 6.51501 43.3992 7.01501 42.0992 7.61501C41.0992 8.01501 40.1992 8.61501 39.2992 9.11501C37.3992 10.115 35.4992 11.215 33.6992 12.315C33.3992 12.515 33.1992 12.615 32.8992 12.815C32.1992 13.215 31.5992 13.715 30.8992 14.115C29.6992 14.915 28.3992 15.715 27.1992 16.615C25.0992 18.115 23.0992 19.715 21.1992 21.415C19.2992 23.115 17.4992 25.015 15.5992 26.815C15.1992 27.215 14.9992 27.815 14.9992 28.415C11.8992 30.715 8.89924 33.115 5.79924 35.415C5.49924 35.615 5.19924 35.915 4.79924 36.115C4.89924 36.015 4.99924 35.915 5.19924 35.815C3.39924 37.215 1.39924 38.515 0.299235 40.415C-0.600765 41.915 -0.100765 43.615 0.699235 45.015C0.999235 45.615 1.29924 46.215 1.69924 46.715C3.29924 49.015 5.09924 51.015 6.99924 53.115C7.39924 53.515 7.69924 53.815 8.09924 54.215C8.49924 54.615 8.99924 55.115 9.39923 55.515C10.4992 56.415 11.5992 57.415 12.6992 58.315C14.8992 60.015 17.0992 61.615 19.2992 63.215C19.7992 63.615 20.3992 64.115 20.8992 64.515C21.4992 65.015 22.0992 65.615 22.5992 66.215C22.6992 66.315 22.7992 66.415 22.8992 66.615C22.7992 66.815 22.6992 67.115 22.6992 67.415C22.6992 67.915 22.8992 68.315 23.1992 68.615C23.4992 68.915 23.9992 69.215 24.3992 69.115C27.5992 68.715 30.8992 68.415 34.0992 68.015C34.3992 68.015 34.7992 67.915 35.0992 67.915C34.9992 68.015 34.9992 68.215 34.9992 68.415C34.9992 68.715 35.0992 69.015 35.3992 69.315C35.5992 69.515 35.8992 69.715 36.1992 69.715C36.4992 69.715 36.8992 69.615 37.0992 69.315C37.5992 68.715 38.0992 68.115 38.4992 67.615C40.0992 67.415 41.6992 67.115 43.1992 66.815C43.7992 66.715 44.2992 66.015 44.2992 65.415C44.2992 64.715 43.6992 64.015 42.9992 64.015H42.8992C42.3992 64.015 41.9992 64.115 41.4992 64.115C41.7992 63.715 42.0992 63.415 42.3992 63.015C43.9992 61.215 45.5992 59.415 47.1992 57.615C48.7992 55.815 50.3992 54.015 51.9992 52.315C53.5992 50.615 55.2992 48.915 57.0992 47.415C57.4992 47.115 57.8992 46.815 58.2992 46.515C59.0992 45.915 59.9992 45.215 60.7992 44.615C61.1992 44.315 61.6992 44.015 62.0992 43.715C62.5992 43.415 63.0992 43.115 63.5992 42.915C64.0992 42.715 64.4992 42.515 64.9992 42.315C67.2992 41.415 69.4992 40.615 71.8992 40.015C72.3992 39.915 72.6992 39.315 72.5992 38.815C72.4992 38.415 72.0992 38.115 71.6992 38.115C71.5992 38.115 71.4992 38.115 71.4992 38.115C70.1992 38.415 68.8992 38.915 67.5992 39.315C66.5992 39.715 65.4992 40.015 64.4992 40.415C64.3992 40.415 64.3992 40.415 64.2992 40.515C64.4992 40.315 64.5992 40.115 64.5992 39.815C64.5992 39.515 64.4992 39.215 64.2992 39.015C64.0992 38.815 63.7992 38.715 63.4992 38.715C63.1992 38.715 62.8992 38.715 62.6992 38.615C62.2992 38.515 61.8992 38.515 61.4992 38.415C60.1992 38.215 58.8992 37.915 57.4992 37.715C56.3992 37.515 55.2992 37.215 54.1992 37.015C54.4992 36.815 54.7992 36.515 55.0992 36.315C56.2992 35.415 57.4992 34.515 58.7992 33.715C58.7992 34.015 58.8992 34.315 58.9992 34.515C59.1992 34.815 59.4992 35.115 59.8992 35.215C64.1992 35.915 68.5992 36.715 72.9992 37.215C73.1992 37.215 73.3992 37.115 73.5992 37.015C73.4992 37.615 73.3992 38.115 73.2992 38.715C72.9992 39.915 72.6992 41.015 72.2992 42.215C71.9992 43.115 71.6992 44.115 71.3992 45.015C70.7992 46.615 70.2992 48.115 69.6992 49.715C68.7992 51.715 67.6992 53.715 66.3992 55.515C65.7992 56.215 65.2992 57.015 64.6992 57.715C61.4992 61.715 58.2992 65.615 54.9992 69.515C53.3992 71.415 51.5992 73.115 49.7992 74.815C48.1992 76.415 46.2992 77.815 44.5992 79.215C43.5992 79.915 42.6992 80.615 41.6992 81.315C40.8992 81.915 39.9992 82.515 39.0992 83.015C37.3992 84.115 35.5992 85.215 33.7992 86.215C32.8992 86.715 31.9992 87.215 31.0992 87.715C30.0992 88.215 29.1992 88.815 28.1992 89.215C26.1992 90.115 24.1992 91.015 22.1992 91.915C20.9992 92.415 19.6992 92.915 18.4992 93.415C17.9992 93.615 17.3992 93.915 16.8992 94.115C16.5992 94.315 16.1992 94.415 15.8992 94.615C15.6992 94.715 15.3992 94.815 15.1992 94.915C14.6992 95.115 14.2992 95.515 13.8992 95.815C13.4992 96.115 13.1992 96.815 12.9992 97.215C12.8992 97.515 12.7992 97.715 12.7992 98.015C12.6992 98.515 12.5992 99.115 12.5992 99.615C12.4992 100.215 12.4992 100.815 12.4992 101.415C12.4992 102.815 12.4992 104.115 12.4992 105.515C12.5992 108.015 12.6992 110.515 12.8992 113.015C12.9992 114.215 13.0992 115.415 13.2992 116.615C13.4992 118.115 13.5992 119.715 13.8992 121.215C14.0992 122.715 14.3992 124.115 14.5992 125.515C14.6992 126.115 14.8992 126.715 14.9992 127.315C15.1992 128.215 15.3992 129.115 15.5992 130.015C15.6992 130.515 15.8992 131.015 16.0992 131.415C16.2992 131.815 16.5992 132.115 16.7992 132.415C17.0992 132.815 17.9992 133.215 18.4992 133.415C18.8992 133.515 19.4992 133.515 19.9992 133.515C20.6992 133.515 21.2992 133.415 21.9992 133.415C23.2992 133.415 24.5992 133.515 25.8992 133.615C28.3992 133.815 30.8992 134.115 33.2992 134.115C35.8992 134.215 38.4992 134.215 40.9992 134.215C46.1992 134.115 51.4992 133.915 56.7992 133.715ZM94.9992 103.115C94.4992 103.215 93.8992 103.215 93.3992 103.315C91.4992 103.515 89.5992 103.715 87.5992 104.015C87.2992 104.015 87.0992 104.115 86.7992 104.115L86.8992 104.015C87.0992 103.715 87.0992 103.415 86.9992 103.015C86.8992 102.715 86.6992 102.515 86.3992 102.315L86.2992 102.215C85.7992 101.715 85.2992 101.215 84.8992 100.715C84.4992 100.315 84.1992 99.915 83.7992 99.515C83.2992 99.015 82.7992 98.515 82.2992 98.015C82.6992 97.915 83.0992 97.715 83.4992 97.615C83.5992 97.615 83.6992 97.515 83.7992 97.515C86.4992 98.815 89.1992 100.115 91.8992 101.515C92.8992 102.015 93.8992 102.515 94.9992 103.115ZM79.2992 98.915C80.0992 99.815 80.9992 100.615 81.7992 101.515C82.1992 101.915 82.4992 102.315 82.8992 102.615C83.0992 102.815 83.3992 103.115 83.5992 103.315C83.7992 103.515 83.9992 103.715 84.2992 103.815C84.4992 104.015 84.6992 104.115 84.9992 104.215C83.4992 104.415 81.8992 104.615 80.3992 104.815C80.3992 104.415 80.2992 104.015 79.9992 103.715C78.5992 102.415 77.2992 101.115 75.9992 99.815C77.0992 99.615 78.1992 99.315 79.2992 98.915ZM69.7992 101.515C70.3992 101.415 70.9992 101.315 71.4992 101.115C71.7992 101.015 72.1992 100.915 72.4992 100.815C73.9992 102.315 75.5992 103.915 77.1992 105.315C76.4992 105.415 75.7992 105.515 75.0992 105.615C74.7992 105.615 74.5992 105.715 74.2992 105.715V105.615C74.1992 105.415 74.0992 105.215 73.8992 105.115C73.6992 104.915 73.3992 104.715 73.1992 104.615C71.8992 103.615 70.6992 102.615 69.3992 101.615C69.5992 101.515 69.6992 101.515 69.7992 101.515ZM66.8992 106.715C66.7992 106.515 66.6992 106.315 66.4992 106.215C65.3992 105.615 64.4992 104.915 63.4992 104.115C62.9992 103.715 62.4992 103.315 61.8992 102.915C62.9992 102.715 64.0992 102.515 65.1992 102.315C65.7992 102.215 66.4992 102.115 67.0992 102.015C68.7992 103.415 70.4992 104.715 72.2992 106.015C70.4992 106.315 68.6992 106.515 66.8992 106.715ZM58.1992 103.515C58.2992 103.615 58.2992 103.615 58.3992 103.715C59.0992 104.315 59.7992 104.815 60.5992 105.415C61.3992 106.015 62.2992 106.615 63.1992 107.215C62.8992 107.215 62.5992 107.315 62.2992 107.315C58.6992 107.715 54.9992 108.215 51.3992 108.615C51.2992 108.415 51.0992 108.215 50.8992 108.015C49.4992 107.215 48.0992 106.315 46.6992 105.415C46.7992 105.415 46.7992 105.315 46.8992 105.315C46.9992 105.315 47.0992 105.315 47.1992 105.315C48.2992 105.215 49.2992 105.015 50.3992 104.815C52.0992 105.615 53.7992 106.415 55.4992 107.115C55.6992 107.215 55.8992 107.315 56.1992 107.215C56.3992 107.115 56.5992 107.015 56.6992 106.815C56.8992 106.415 56.7992 105.815 56.3992 105.615C55.4992 105.215 54.5992 104.715 53.6992 104.315C55.1992 104.015 56.6992 103.715 58.1992 103.515ZM43.5992 107.315C43.7992 107.215 43.9992 107.015 44.1992 106.915C45.1992 107.515 46.2992 108.215 47.2992 108.815C46.2992 108.915 45.1992 109.015 44.1992 109.015C43.2992 109.115 42.4992 109.115 41.5992 109.115C41.2992 109.115 40.9992 109.115 40.5992 109.215C41.5992 108.615 42.5992 108.015 43.5992 107.315ZM28.2992 65.015C28.5992 64.515 28.9992 64.115 29.2992 63.615C29.8992 62.715 30.5992 61.815 31.1992 60.815C34.5992 60.715 37.8992 60.515 41.2992 60.415C40.2992 61.615 39.2992 62.715 38.2992 63.915C35.0992 64.315 31.6992 64.715 28.2992 65.015ZM42.8992 58.815C42.6992 58.415 42.2992 58.115 41.7992 58.115C40.9992 58.115 40.1992 58.115 39.3992 58.115C37.3992 58.115 35.2992 58.215 33.2992 58.215C33.4992 58.015 33.5992 57.815 33.7992 57.515C34.4992 56.615 35.1992 55.815 35.8992 55.015C39.3992 55.015 42.8992 55.015 46.3992 55.015C45.0992 56.215 43.9992 57.515 42.8992 58.815ZM47.7992 53.415C47.5992 53.115 47.2992 52.915 46.8992 52.915C43.8992 52.815 40.8992 52.815 37.8992 52.815C38.4992 52.115 39.1992 51.415 39.7992 50.715C41.7992 50.615 43.7992 50.515 45.8992 50.415C46.8992 50.315 47.7992 50.215 48.7992 50.115C49.1992 50.015 49.6992 50.015 50.0992 49.915C50.3992 49.815 50.6992 49.815 51.0992 49.715C51.1992 49.715 51.2992 49.715 51.2992 49.615C50.4992 50.515 49.5992 51.415 48.7992 52.315C48.3992 52.615 48.0992 53.015 47.7992 53.415ZM55.1992 45.915C54.6992 46.315 54.1992 46.815 53.6992 47.315C53.3992 47.615 53.0992 47.915 52.7992 48.215C52.5992 47.915 52.3992 47.815 52.0992 47.815C51.9992 47.815 51.9992 47.815 51.8992 47.815C51.5992 47.915 51.2992 47.915 50.8992 48.015C50.4992 48.115 50.0992 48.115 49.6992 48.215C49.2992 48.315 48.7992 48.315 48.3992 48.315C47.4992 48.415 46.4992 48.415 45.5992 48.515C44.2992 48.615 42.8992 48.715 41.5992 48.715C42.3992 47.815 43.2992 47.015 44.0992 46.115C44.5992 45.615 45.0992 45.115 45.6992 44.615C45.8992 44.715 46.0992 44.815 46.3992 44.815C49.5992 45.015 52.7992 45.315 55.9992 45.315C55.5992 45.615 55.3992 45.715 55.1992 45.915ZM52.8992 38.815C53.9992 39.115 54.9992 39.315 56.0992 39.515C56.8992 39.715 57.5992 39.815 58.3992 39.915C60.0992 40.215 61.8992 40.415 63.5992 40.515C63.2992 40.615 62.9992 40.815 62.6992 40.915C61.5992 41.415 60.4992 42.015 59.4992 42.715C58.9992 43.015 58.5992 43.315 58.0992 43.715L57.9992 43.615C57.7992 43.415 57.4992 43.315 57.1992 43.315C55.3992 43.215 53.6992 43.015 51.8992 42.915C50.4992 42.815 49.1992 42.715 47.7992 42.615C48.3992 42.015 49.0992 41.415 49.6992 40.815C50.4992 40.015 51.3992 39.315 52.2992 38.615C52.4992 38.715 52.6992 38.815 52.8992 38.815ZM61.1992 32.215C61.7992 31.815 62.4992 31.515 63.0992 31.215C64.5992 30.615 66.1992 30.115 67.8992 29.815C68.6992 29.715 69.3992 29.715 70.1992 29.815C70.6992 29.915 71.0992 30.015 71.5992 30.215C71.8992 30.315 72.0992 30.515 72.3992 30.715C72.6992 31.015 72.9992 31.315 73.2992 31.615C73.4992 31.915 73.6992 32.115 73.7992 32.415C73.8992 32.715 73.9992 33.115 74.0992 33.415C74.0992 33.815 74.0992 34.215 74.0992 34.615C73.8992 34.515 73.7992 34.415 73.5992 34.315C69.3992 33.615 65.2992 32.915 61.1992 32.215ZM33.0992 128.215C30.7992 128.015 28.3992 127.815 26.0992 127.615C24.9992 127.515 23.9992 127.415 22.8992 127.415C22.3992 127.415 21.8992 127.415 21.3992 127.415C21.2992 127.415 21.1992 127.415 21.1992 127.415C21.0992 127.015 21.0992 126.615 20.9992 126.215C20.7992 125.515 20.6992 124.715 20.4992 124.015C20.2992 122.615 19.9992 121.115 19.7992 119.715C19.5992 118.215 19.3992 116.715 19.2992 115.215C19.0992 113.115 18.9992 111.115 18.7992 109.015C18.6992 107.315 18.5992 105.615 18.5992 103.915C18.5992 103.015 18.4992 102.115 18.4992 101.215C18.4992 100.515 18.3992 99.715 18.2992 99.015C19.3992 98.415 20.5992 97.915 21.6992 97.415C22.6992 96.915 23.6992 96.515 24.6992 96.015C26.9992 94.915 29.3992 93.915 31.5992 92.615C33.8992 91.315 36.1992 90.015 38.4992 88.515C40.6992 87.115 42.7992 85.615 44.8992 84.015C47.0992 82.315 49.2992 80.615 51.2992 78.815C52.3992 77.815 53.3992 76.915 54.3992 75.915C55.2992 75.015 56.1992 74.015 57.0992 73.115C57.9992 72.115 58.7992 71.015 59.6992 70.015C60.4992 69.015 61.2992 68.115 61.9992 67.115C63.6992 65.115 65.2992 63.015 66.8992 60.915C67.7992 59.815 68.5992 58.615 69.4992 57.515C71.2992 55.015 72.5992 52.315 73.6992 49.515C74.6992 46.915 75.5992 44.215 76.3992 41.515C76.6992 40.415 76.9992 39.215 77.1992 38.015C77.3992 37.015 77.4992 36.115 77.6992 35.115C77.8992 33.415 77.5992 31.615 76.7992 30.115C76.4992 29.515 75.9992 28.915 75.4992 28.415C74.8992 27.815 74.1992 27.315 73.4992 26.915C71.7992 26.115 69.8992 25.915 68.0992 26.015C66.3992 26.115 64.7992 26.615 63.1992 27.115C61.3992 27.715 59.6992 28.615 57.9992 29.615C55.1992 31.315 52.6992 33.315 50.1992 35.415C49.1992 36.215 48.2992 37.115 47.2992 37.915C46.3992 38.715 45.4992 39.515 44.5992 40.315C42.6992 42.115 40.7992 43.915 38.9992 45.815C37.1992 47.715 35.3992 49.715 33.6992 51.715C31.9992 53.815 30.2992 55.915 28.7992 58.115C27.6992 59.715 26.6992 61.315 25.4992 62.915C24.8992 62.115 24.1992 61.415 23.3992 60.815C22.7992 60.315 22.1992 59.815 21.5992 59.315C20.3992 58.415 19.1992 57.415 17.9992 56.515C17.0992 55.815 16.1992 55.015 15.2992 54.315C14.7992 53.915 14.3992 53.515 13.9992 53.115C13.5992 52.715 13.1992 52.415 12.7992 52.015C11.9992 51.215 11.1992 50.315 10.3992 49.415C9.69923 48.615 8.99924 47.815 8.39923 47.015C7.29923 45.515 6.19924 44.015 5.29924 42.315C6.29924 41.215 7.59924 40.215 8.79924 39.315C9.79924 38.515 10.7992 37.815 11.7992 37.015C14.0992 35.215 16.2992 33.415 18.5992 31.715C22.6992 28.415 26.7992 25.215 30.8992 21.915C30.9992 21.915 30.9992 21.815 31.0992 21.815C30.9992 21.915 30.7992 22.015 30.6992 22.115C31.1992 21.715 31.6992 21.315 32.1992 20.915C32.7992 20.415 33.3992 20.015 33.9992 19.615C34.7992 19.115 35.0992 18.215 34.7992 17.315C35.2992 17.015 35.8992 16.615 36.3992 16.315C37.3992 15.715 38.3992 15.215 39.4992 14.615C41.0992 13.715 42.6992 12.915 44.2992 12.115C45.5992 11.515 46.8992 10.915 48.2992 10.415C49.5992 9.91501 50.8992 9.41501 52.1992 9.01501C53.3992 8.61502 54.6992 8.21501 55.9992 8.01501C57.1992 7.81501 58.2992 7.51501 59.4992 7.31501C61.1992 7.01501 62.9992 6.71501 64.6992 6.41501C65.6992 6.31501 66.5992 6.21501 67.5992 6.01501C69.6992 5.71501 71.8992 5.71501 73.9992 5.91501C76.0992 6.21501 78.0992 6.81501 79.9992 7.51501C80.7992 7.81501 81.5992 8.11501 82.2992 8.41501C84.2992 9.31501 86.1992 10.315 87.9992 11.615C88.9992 12.515 89.8992 13.415 90.7992 14.515C91.8992 16.015 92.6992 17.515 93.4992 19.215C93.8992 20.215 94.1992 21.115 94.4992 22.115C94.7992 23.115 95.0992 24.215 95.2992 25.315C95.3992 26.215 95.5992 27.015 95.6992 27.915C95.7992 29.115 95.9992 30.315 95.9992 31.515C96.0992 34.215 96.1992 36.815 95.8992 39.515C95.5992 41.915 94.8992 44.215 94.2992 46.515C93.8992 47.815 93.4992 49.015 92.9992 50.215C93.0992 50.115 93.0992 49.915 93.1992 49.815C92.7992 50.815 92.2992 51.815 91.8992 52.815C91.4992 53.915 90.8992 54.915 90.3992 55.915C89.8992 57.015 89.2992 58.015 88.7992 59.015C88.2992 60.015 87.6992 60.915 87.0992 61.815C86.4992 62.715 85.8992 63.615 85.2992 64.615C84.6992 65.515 84.0992 66.315 83.4992 67.215C82.2992 69.015 80.9992 70.715 79.6992 72.515C78.7992 73.815 77.7992 75.015 76.7992 76.315C75.8992 77.415 74.9992 78.615 74.0992 79.615C72.9992 80.915 71.8992 82.115 70.6992 83.315C70.0992 83.915 69.4992 84.515 68.8992 85.115C68.2992 85.715 67.5992 86.315 66.9992 86.915C65.8992 87.915 64.6992 88.915 63.4992 89.915C61.6992 91.215 59.9992 92.615 58.1992 93.815C56.4992 95.115 54.6992 96.315 52.8992 97.515C50.6992 99.015 48.4992 100.515 46.1992 102.115C45.9992 102.215 45.6992 102.315 45.5992 102.515C45.0992 102.915 44.4992 103.215 43.9992 103.615C43.7992 103.515 43.6992 103.415 43.4992 103.315C43.2992 103.215 43.0992 103.115 42.8992 103.115C42.3992 103.115 41.9992 103.415 41.6992 103.815C41.3992 104.315 41.4992 104.815 41.7992 105.215C40.1992 106.315 38.5992 107.415 36.8992 108.415C36.3992 108.715 35.9992 108.915 35.5992 109.315C35.0992 109.815 34.9992 110.615 35.0992 111.215C35.1992 111.615 35.3992 111.815 35.6992 112.115C35.9992 112.415 36.2992 112.515 36.6992 112.615C36.9992 112.715 37.3992 112.815 37.6992 112.815C38.1992 112.915 38.5992 112.915 39.0992 112.915C40.1992 112.915 41.2992 112.915 42.2992 112.915C44.4992 112.915 46.7992 112.815 48.9992 112.615C51.0992 112.515 53.1992 112.315 55.1992 112.015C59.8992 111.515 64.4992 111.115 69.1992 110.615C73.3992 110.215 77.4992 109.715 81.5992 109.215C84.5992 108.815 87.5992 108.515 90.5992 108.215C91.9992 108.115 93.4992 107.915 94.8992 107.815C96.5992 107.615 98.1992 107.515 99.8992 107.215C99.5992 110.115 99.2992 113.015 99.0992 116.015C98.9992 117.715 98.9992 119.315 98.8992 121.015C98.8992 121.815 98.8992 122.515 98.8992 123.315C98.8992 124.215 98.9992 125.115 98.8992 126.015C98.7992 126.315 98.7992 126.515 98.6992 126.715C98.5992 126.715 98.4992 126.815 98.4992 126.815C97.9992 127.015 97.3992 127.115 96.8992 127.215C93.9992 127.515 91.0992 127.515 88.2992 127.515C85.8992 127.515 83.5992 127.615 81.1992 127.615C75.8992 127.615 70.5992 127.615 65.2992 127.715C59.9992 127.815 54.5992 128.015 49.2992 128.215C46.3992 128.315 43.4992 128.415 40.5992 128.415C38.0992 128.415 35.4992 128.415 33.0992 128.215Z" fill="#5D06EA"/>
</g>
<defs>
<clipPath id="clip0">
<rect width="105" height="133.9" fill="white" transform="translate(-0.000732422 0.415039)"/>
</clipPath>
</defs>
</svg>
