<svg width="109" height="154" viewBox="0 0 109 154" fill="none" xmlns="http://www.w3.org/2000/svg">
<g clip-path="url(#clip0)">
<path d="M34.8003 82.3C36.7003 80.7 38.6003 79.1 40.4003 77.5C41.0003 77 41.5003 76.5 42.1003 76C43.2003 75 44.3003 74 45.4003 73C46.2003 72.3 47.0003 71.5 47.8003 70.8C47.9003 70.7 47.9003 70.7 48.0003 70.6C48.2003 73.2 48.5003 75.7 48.7003 78.3C48.6003 78.4 48.5003 78.5 48.4003 78.6C48.1003 78.8 48.2003 79.3 48.4003 79.5C48.5003 79.6 48.7003 79.7 48.8003 79.7C48.9003 80.7 49.0003 81.6 49.1003 82.6C48.9003 82.9 49.0003 83.2 49.2003 83.5C49.4003 85.2 49.5003 86.9 49.7003 88.5C50.0003 91.9 50.3003 95.3 50.7003 98.7C50.6003 98.8 50.5003 99 50.5003 99.1C50.5003 99.3 50.6003 99.4 50.7003 99.5L50.8003 99.6C50.9003 100.6 51.0003 101.6 51.1003 102.5C51.2003 103.2 51.2003 103.8 51.3003 104.5C51.3003 104.6 51.2003 104.7 51.2003 104.8C51.2003 104.9 51.2003 105.1 51.3003 105.2C51.5003 106.8 51.6003 108.5 51.7003 110.1C51.6003 110.3 51.5003 110.4 51.5003 110.6C51.5003 110.8 51.6003 111.1 51.8003 111.2C51.9003 112.6 52.1003 114 52.2003 115.4C52.1003 115.7 52.1003 116 52.3003 116.2C52.3003 116.7 52.4003 117.1 52.4003 117.6C52.5003 118.3 52.5003 119 52.6003 119.7C52.5003 119.8 52.3003 120 52.2003 120.1C51.7003 120.6 51.7003 121.4 52.2003 121.9C52.4003 122.1 52.6003 122.2 52.8003 122.2C53.1003 125.7 53.3003 129.1 53.6003 132.6C53.8003 135 53.9003 137.4 54.1003 139.8C54.2003 140.9 54.3003 142 54.3003 143.1C54.3003 143.5 54.4003 143.9 54.4003 144.3C54.1003 144.7 53.7003 145.2 53.4003 145.7C53.0003 146.2 52.8003 146.8 52.5003 147.4C52.2003 147.9 52.1003 148.4 52.3003 149C52.5003 149.7 53.1003 150.3 53.7003 150.4C54.0003 150.5 54.2003 150.5 54.5003 150.5C55.4003 150.5 56.2003 149.9 56.4003 149C56.4003 148.9 56.5003 148.8 56.5003 148.6C57.0003 147.8 57.5003 147.1 58.1003 146.3C58.9003 145.2 59.7003 144.2 60.5003 143.1C60.8003 143.1 61.0003 143 61.3003 143C62.7003 142.6 64.0003 142.3 65.4003 141.9C64.1003 143.7 62.9003 145.6 61.6003 147.4C61.4003 147.7 61.6003 148 61.8003 148.2C62.1003 148.4 62.4003 148.3 62.6003 148C64.1003 145.8 65.6003 143.7 67.1003 141.5C68.1003 141.2 69.2003 141 70.2003 140.7C70.6003 140.6 70.9003 140.5 71.3003 140.5C68.8003 143.2 66.3003 145.8 63.8003 148.5C63.1003 148.5 62.5003 148.5 61.8003 148.5C60.8003 148.5 59.8003 148.4 58.8003 148.4C57.6003 148.3 56.6003 149.4 56.6003 150.6C56.6003 151.8 57.6003 152.7 58.8003 152.8C60.4003 152.9 62.1003 152.9 63.7003 153C64.7003 153 65.7003 153.1 66.6003 153.1C68.1003 153 69.6003 153 71.1003 152.9C72.0003 152.9 72.8003 152.8 73.7003 152.7C76.0003 152.5 78.2003 152.3 80.5003 152C80.5003 152.1 80.4003 152.1 80.4003 152.2C80.2003 152.5 80.3003 152.8 80.6003 153C80.9003 153.2 81.2003 153.1 81.4003 152.8C81.6003 152.5 81.8003 152.2 82.0003 151.9C84.1003 151.7 86.1003 151.5 88.2003 151.3C89.0003 151.2 89.9003 151.2 90.7003 151.3C91.8003 151.3 92.7003 150.3 92.7003 149.3C92.7003 148.9 92.6003 148.5 92.4003 148.2C92.9003 148.1 93.4003 147.8 93.7003 147.3C94.9003 145.3 96.3003 143.3 97.7003 141.4C99.1003 139.5 100.5 137.7 101.9 135.9C102 135.8 102.1 135.6 102.2 135.5C103.5 135.3 104.7 135.1 105.9 134.6C106.2 134.5 106.5 134.3 106.8 134.2C107.4 133.9 107.9 133.4 108.2 132.8C108.7 131.9 108.9 130.8 108.6 129.8C108.3 128.8 107.7 128 106.8 127.5C106.3 127.2 105.8 127.1 105.2 127C105.2 126.8 105.2 126.5 105.1 126.3C104.9 125.7 104.6 125.2 104.1 124.8C104 124.3 103.9 123.8 103.8 123.3C103.7 122.7 103.6 122.1 103.5 121.6C103.3 120.4 103.1 119.2 102.9 118.1C102.5 115.4 102.1 112.7 101.7 110C101.1 105.5 100.3 101 99.6003 96.6C99.2003 94.2 98.8003 91.8 98.5003 89.3C98.1003 86.8 97.8003 84.3 97.4003 81.8C97.1003 79.2 96.8003 76.6 96.5003 74C96.4003 73.1 96.4003 72.3 96.3003 71.4C96.2003 69.7 96.0003 67.9 95.9003 66.2C95.7003 64.1 95.6003 62 95.5003 59.9C95.4003 58.2 95.3003 56.4 95.2003 54.7C95.2003 54.1 95.1003 53.4 95.1003 52.8C95.0003 49.8 95.0003 46.7 94.9003 43.7C94.9003 41.5 94.9003 39.3 95.0003 37.2C95.0003 35.2 95.0003 33.1 95.1003 31.1C95.3003 27.8 95.4003 24.4 95.6003 21.1C95.7003 18.9 96.0003 16.8 96.2003 14.6C96.4003 12.9 96.5003 11.2 96.7003 9.5C97.3003 9.3 97.9003 8.9 98.4003 8.5C99.1003 7.9 99.4003 6.9 99.4003 6C99.4003 5.2 99.1003 4.1 98.4003 3.5C98.1003 3.3 97.8003 3.1 97.6003 2.9C97.6003 2.7 97.7003 2.6 97.7003 2.4C97.8003 1.9 97.8003 1.5 97.5003 1C97.3003 0.6 96.9003 0.3 96.4003 0.2C96.3003 0 96.1003 0 96.0003 0C95.7003 0 95.4003 0.1 95.1003 0.2C94.7003 0.4 94.4003 0.8 94.3003 1.3C94.3003 1.6 94.2003 1.9 94.2003 2.2C93.7003 2.2 93.1003 2.3 92.6003 2.4C91.1003 2.5 89.7003 2.7 88.2003 2.8C86.5003 2.8 84.9003 3 83.3003 3C81.7003 3 80.1003 3.1 78.5003 3C76.4003 2.9 74.4003 2.9 72.3003 2.8C70.9003 2.7 69.5003 2.6 68.1003 2.5C66.2003 2.4 64.4003 2.2 62.5003 2.1C60.3003 2 58.0003 1.7 55.8003 1.7H55.7003C54.6003 1.7 53.5003 1.8 52.4003 2C51.2003 2.2 50.0003 2.4 49.0003 3.1C48.6003 3.3 48.3003 3.6 48.0003 4C47.7003 4 47.2003 4.1 47.0003 4.4C46.9003 4.5 46.8003 4.6 46.8003 4.7C45.0003 7 43.3003 9.4 41.6003 11.7C40.0003 13.9 38.3003 16 36.7003 18.2C35.3003 20 33.9003 21.8 32.5003 23.6C31.5003 24.9 30.5003 26.1 29.4003 27.4C28.4003 28.5 27.5003 29.7 26.5003 30.8C26.0003 31.4 25.6003 32 25.0003 32.5C23.4003 34.3 21.8003 36 20.2003 37.8C18.1003 40.1 15.9003 42.3 13.8003 44.6C12.6003 45.9 11.3003 47.2 10.1003 48.4C9.60029 48.9 9.00029 49.5 8.50029 50C7.90029 50.6 7.30029 51.2 6.80029 51.8C6.60029 51.8 6.40029 51.9 6.20029 52C5.80029 52.2 5.50029 52.6 5.40029 53C4.90029 55.8 4.50029 58.6 4.00029 61.4C3.60029 64 3.10029 66.6 2.80029 69.3C2.60029 69.2 2.30029 69.1 2.10029 69.1C1.40029 69.1 0.800291 69.5 0.400291 70.1C-0.0997093 71 0.200291 72.2 1.10029 72.7C4.00029 74.5 7.00029 76.3 9.90029 78.1C11.7003 79.2 13.4003 80.4 15.1003 81.6C16.0003 82.3 16.9003 83 17.8003 83.7C18.7003 84.4 19.5003 85.1 20.4003 85.9C20.9003 86.4 21.4003 86.8 21.9003 87.3C21.6003 87.9 21.4003 88.5 21.1003 89.1C20.9003 89.6 20.6003 90.2 20.4003 90.7C20.2003 91.1 20.1003 91.4 20.3003 91.8C20.4003 92.2 20.6003 92.5 21.0003 92.7C21.3003 92.9 21.7003 92.9 22.1003 92.8C22.4003 92.7 22.8003 92.5 22.9003 92.2C23.0003 92.2 23.1003 92.1 23.1003 92C23.8003 91.4 24.5003 90.9 25.2003 90.3C25.4003 90.5 25.6003 90.6 25.8003 90.8C26.4003 91.3 27.2003 91.5 27.9003 91.1C28.0003 91.2 28.1003 91.2 28.2003 91.2C28.7003 91.3 29.2003 91 29.3003 90.6C29.7003 89 30.2003 87.4 30.6003 85.9C31.8003 84.7 33.3003 83.5 34.8003 82.3ZM21.1003 81.5C22.1003 79.5 23.1003 77.4 24.1003 75.4C24.6003 74.4 25.0003 73.5 25.5003 72.5C25.7003 72.2 25.8003 71.9 25.9003 71.5V71.4C25.9003 71.4 26.0003 71.4 26.0003 71.5C25.6003 72 25.4003 72.7 25.4003 73.3C25.4003 74.1 25.7003 74.8 26.3003 75.4C26.4003 75.5 26.5003 75.6 26.7003 75.7C25.6003 78.3 24.5003 80.9 23.4003 83.5C22.6003 82.9 21.9003 82.2 21.1003 81.5ZM18.7003 79.7C18.8003 79.7 18.8003 79.7 18.9003 79.7C19.1003 79.6 19.3003 79.5 19.4003 79.3C19.7003 78.5 20.1003 77.7 20.4003 76.9C20.4003 77 20.3003 77 20.3003 77.1C21.0003 75.4 21.8003 73.7 22.5003 72C22.8003 71.3 23.1003 70.5 23.4003 69.8C23.9003 70.2 24.5003 70.6 25.0003 71C24.8003 71.4 24.7003 71.7 24.5003 72.1C24.0003 73 23.6003 74 23.1003 74.9C22.1003 76.9 21.1003 78.9 20.2003 80.9C19.7003 80.4 19.2003 80 18.7003 79.7ZM25.7003 85.5C25.7003 85.5 25.7003 85.4 25.8003 85.4C25.7003 85.4 25.7003 85.4 25.7003 85.5ZM25.7003 85.5C25.7003 85.5 25.6003 85.5 25.7003 85.5C25.6003 85.5 25.6003 85.5 25.7003 85.5C25.6003 85.5 25.6003 85.5 25.7003 85.5ZM25.6003 85.6C25.6003 85.6 25.6003 85.5 25.6003 85.6C25.6003 85.5 25.6003 85.5 25.6003 85.6C25.6003 85.5 25.6003 85.5 25.6003 85.5C25.6003 85.4 25.7003 85.3 25.7003 85.2C25.7003 85.2 25.7003 85.3 25.6003 85.3V85.2C25.7003 85 25.8003 84.8 25.9003 84.6C25.9003 84.7 25.8003 84.8 25.8003 84.9C26.0003 84.5 26.2003 84 26.3003 83.6C26.3003 83.7 26.2003 83.8 26.2003 83.9C26.3003 83.7 26.4003 83.5 26.5003 83.3C26.5003 83.3 26.5003 83.3 26.5003 83.4C26.5003 83.4 26.5003 83.3 26.6003 83.3C26.7003 83 26.9003 82.7 27.0003 82.3C27.0003 82.4 26.9003 82.5 26.9003 82.5C26.9003 82.5 26.9003 82.4 27.0003 82.4C27.0003 82.4 27.0003 82.4 27.0003 82.3C27.0003 82.2 27.1003 82.1 27.1003 82.1C27.1003 82.2 27.0003 82.3 27.0003 82.3C27.0003 82.2 27.1003 82.1 27.1003 82C27.1003 82 27.1003 82.1 27.0003 82.1C27.1003 81.9 27.1003 81.8 27.2003 81.6C27.2003 81.7 27.1003 81.8 27.1003 81.9C27.2003 81.7 27.2003 81.6 27.3003 81.4C27.3003 81.4 27.3003 81.4 27.3003 81.3C27.3003 81.4 27.2003 81.5 27.2003 81.6C28.0003 79.7 28.8003 77.8 29.6003 75.9C30.0003 75.7 30.3003 75.5 30.6003 75.3C30.9003 75.1 31.2003 74.8 31.4003 74.6C30.5003 77.8 29.7003 81 28.8003 84.2C28.0003 84.9 27.1003 85.6 26.3003 86.2C26.1003 86.2 25.9003 85.9 25.6003 85.6ZM34.4003 79.9C33.4003 80.8 32.3003 81.6 31.3003 82.5C31.8003 80.5 32.4003 78.4 32.9003 76.4C33.2003 75.4 33.4003 74.4 33.7003 73.3C33.7003 73.2 33.7003 73.1 33.7003 73C34.4003 72.4 35.1003 71.9 35.8003 71.3C34.6003 74 33.4003 76.7 32.2003 79.4C32.1003 79.5 32.1003 79.7 32.1003 79.8C32.1003 79.9 32.2003 80.1 32.4003 80.1C32.7003 80.2 33.1003 80.2 33.2003 79.9C34.2003 77.8 35.2003 75.7 36.1003 73.5C36.7003 72.1 37.3003 70.8 37.9003 69.4C38.5003 68.9 39.1003 68.4 39.7003 67.9C39.5003 68.4 39.3003 68.8 39.2003 69.3C38.3003 71.7 37.5003 74.1 36.7003 76.5C36.6003 76.8 36.8003 77.2 37.2003 77.3C37.3003 77.3 37.4003 77.3 37.5003 77.3C37.3003 77.5 37.1003 77.6 36.9003 77.8C36.0003 78.5 35.2003 79.2 34.4003 79.9ZM40.1003 75C39.4003 75.6 38.6003 76.3 37.9003 76.9C38.7003 74.5 39.5003 72.2 40.4003 69.8C40.6003 69.2 40.8003 68.6 41.0003 68C41.1003 67.6 41.3003 67.2 41.4003 66.8C41.5003 66.6 41.6003 66.3 41.7003 66.1C42.0003 65.8 42.3003 65.5 42.6003 65.3C43.4003 64.5 44.2003 63.8 45.0003 63C44.5003 64.2 44.1003 65.4 43.6003 66.7C42.8003 69 41.9003 71.4 41.2003 73.8C41.2003 73.9 41.2003 74 41.2003 74.1C40.9003 74.3 40.5003 74.6 40.1003 75ZM44.3003 71.2C45.7003 67.5 47.1003 63.7 48.6003 60C48.7003 59.8 48.6003 59.5 48.6003 59.3C49.6003 58.2 50.7003 57.1 51.7003 55.9C51.9003 55.7 52.0003 55.5 52.2003 55.3C51.6003 56.7 51.1003 58 50.5003 59.4C49.2003 62.2 48.0003 65 46.6003 67.8C46.4003 68.2 46.3003 68.6 46.4003 69C46.1003 69.3 45.8003 69.5 45.5003 69.8C45.1003 70.4 44.7003 70.8 44.3003 71.2ZM56.5003 141.5C56.5003 141.2 56.4003 140.9 56.4003 140.6C56.5003 140.8 56.6003 141 56.7003 141.2C56.7003 141.3 56.6003 141.4 56.5003 141.5ZM54.8003 121.2C55.6003 120.4 56.5003 119.6 57.3003 118.8C57.8003 118.4 58.2003 117.9 58.7003 117.5C59.2003 117 59.7003 116.5 60.3003 116C60.3003 117.5 60.4003 119.1 60.4003 120.6C58.7003 122.3 56.9003 124.1 55.3003 125.8C55.1003 124.3 55.0003 122.8 54.8003 121.2ZM53.0003 101.9C52.9003 100.7 52.8003 99.5 52.6003 98.3C53.9003 96.7 55.1003 95.1 56.4003 93.5C57.1003 92.6 57.8003 91.7 58.6003 90.9C58.9003 90.5 59.2003 90.2 59.5003 89.8C59.6003 91.3 59.6003 92.8 59.7003 94.3L59.6003 94.4C59.3003 94.7 59.0003 95.1 58.7003 95.5C58.0003 96.4 57.3003 97.2 56.5003 98.1C55.3003 99.5 54.1003 100.9 53.0003 102.4C53.1003 102.2 53.0003 102 53.0003 101.9ZM56.3003 138.7C56.2003 138.1 56.2003 137.4 56.1003 136.8C56.4003 136.5 56.8003 136.2 57.1003 135.8C57.5003 135.4 57.9003 135 58.3003 134.6C59.1003 133.7 60.0003 132.9 60.8003 132C60.8003 132.2 60.8003 132.4 60.8003 132.5C60.9003 133 60.9003 133.6 61.0003 134.1C61.0003 134.3 61.1003 134.6 61.1003 134.8C60.4003 135 59.8003 135.2 59.1003 135.3C57.6003 135.9 56.5003 137.2 56.3003 138.7ZM55.8003 133C57.4003 131.5 59.0003 130.1 60.6003 128.6C60.6003 129.1 60.6003 129.5 60.7003 130C60.7003 130.1 60.7003 130.2 60.7003 130.4C60.5003 130.4 60.4003 130.5 60.3003 130.6C59.4003 131.7 58.4003 132.7 57.4003 133.7C57.0003 134.1 56.6003 134.5 56.2003 134.9C56.1003 135 56.1003 135 56.0003 135.1C55.9003 134.3 55.9003 133.6 55.8003 133ZM60.5003 124.9C60.5003 125.7 60.5003 126.5 60.6003 127.3C60.5003 127.3 60.3003 127.4 60.2003 127.5C58.7003 128.9 57.2003 130.2 55.7003 131.6C55.6003 130.4 55.5003 129.2 55.4003 127.9C57.1003 126.1 58.8003 124.4 60.4003 122.6C60.5003 123.4 60.5003 124.1 60.5003 124.9ZM53.3003 104.7C54.8003 102.9 56.3003 101.1 57.8003 99.2C58.5003 98.4 59.2003 97.5 59.9003 96.7C59.9003 98.1 60.0003 99.5 60.0003 100.9C59.9003 100.9 59.7003 101 59.6003 101.1C59.3003 101.3 59.1003 101.6 58.8003 101.8C58.6003 102 58.4003 102.2 58.2003 102.4C57.9003 102.7 57.7003 103 57.5003 103.2C56.9003 103.9 56.3003 104.6 55.7003 105.3C55.0003 106.1 54.3003 107 53.6003 107.8C53.5003 106.9 53.4003 105.8 53.3003 104.7ZM53.8003 110.4C54.8003 109.2 55.8003 107.9 56.8003 106.7C57.4003 106 58.0003 105.3 58.5003 104.6C59.0003 104 59.4003 103.4 59.9003 102.9C59.9003 104 60.0003 105.2 60.0003 106.3C58.7003 107.7 57.5003 109.1 56.3003 110.6C55.5003 111.5 54.7003 112.5 54.0003 113.4C54.0003 112.4 53.9003 111.4 53.8003 110.4ZM51.7003 88.3C51.5003 86.4 51.3003 84.6 51.2003 82.7C52.1003 81.8 53.1003 80.8 54.0003 79.9C54.5003 79.4 55.1003 78.8 55.6003 78.3C55.8003 78.1 56.0003 77.9 56.2003 77.7C56.6003 77.3 57.0003 77 57.4003 76.6C57.6003 76.4 57.7003 76 57.5003 75.8C57.4003 75.6 57.3003 75.5 57.1003 75.5C57.0003 75.5 57.0003 75.5 56.9003 75.5C56.8003 75.5 56.7003 75.5 56.6003 75.6C56.3003 75.8 56.0003 76 55.7003 76.3C55.6003 76.4 55.5003 76.5 55.4003 76.6C55.1003 76.8 54.9003 77.1 54.6003 77.3C54.1003 77.8 53.5003 78.4 53.0003 78.9C52.3003 79.5 51.7003 80.2 51.1003 80.8C51.0003 80 50.9003 79.1 50.9003 78.3C53.4003 76 55.8003 73.6 58.3003 71.3C58.5003 72.9 58.6003 74.5 58.8003 76.1C59.0003 78.1 59.1003 80.1 59.3003 82.1C59.2003 82 59.1003 82 59.0003 82C58.8003 82 58.6003 82.1 58.4003 82.2C58.2003 82.4 57.9003 82.6 57.7003 82.9C57.5003 83.1 57.3003 83.3 57.1003 83.5C56.8003 83.8 56.6003 84.1 56.4003 84.4C55.8003 85.1 55.3003 85.7 54.8003 86.4C53.9003 87.5 53.0003 88.7 52.1003 89.8C51.8003 89.3 51.8003 88.8 51.7003 88.3ZM49.8003 68.9C50.1003 68.7 50.3003 68.4 50.6003 68.2C51.0003 67.8 51.0003 67.1 50.6003 66.7C51.1003 65.5 51.7003 64.4 52.2003 63.2C52.8003 61.8 53.4003 60.4 54.0003 59C54.7003 57.4 55.3003 55.8 56.0003 54.2C56.4003 56.9 56.7003 59.6 57.0003 62.3C56.7003 62.6 56.4003 62.9 56.2003 63.3C55.4003 64.2 54.6003 65.1 53.9003 66C52.6003 67.5 51.3003 68.9 50.0003 70.4C49.9003 69.9 49.9003 69.4 49.8003 68.9ZM50.1003 72.2C51.7003 70.4 53.3003 68.6 54.9003 66.7C55.7003 65.8 56.5003 64.9 57.2003 63.9C57.4003 65.4 57.6003 66.9 57.8003 68.4C57.9003 68.8 57.9003 69.2 57.9003 69.6C55.4003 71.9 53.0003 74.2 50.5003 76.5C50.4003 75.1 50.3003 73.7 50.1003 72.2ZM52.1003 92.3C53.3003 90.7 54.5003 89.2 55.8003 87.6C56.9003 86.2 58.0003 84.8 59.2003 83.4C59.3003 85 59.4003 86.5 59.5003 88.1C59.3003 88.3 59.1003 88.5 58.9003 88.8C58.6003 89.2 58.2003 89.6 57.9003 90C57.1003 90.9 56.4003 91.8 55.7003 92.7C54.6003 94 53.6003 95.3 52.6003 96.6C52.4003 95.1 52.2003 93.7 52.1003 92.3ZM54.5003 117.5C54.4003 116.8 54.4003 116.2 54.3003 115.5C55.4003 114.2 56.5003 112.9 57.6003 111.6C58.3003 110.7 59.1003 109.8 59.8003 109C59.9003 108.9 60.0003 108.7 60.1003 108.6C60.1003 110.2 60.2003 111.7 60.2003 113.3C59.5003 113.5 59.0003 114 58.4003 114.5C58.0003 114.8 57.6003 115.2 57.3003 115.5C56.7003 116 56.2003 116.5 55.6003 117C55.2003 117.3 54.9003 117.7 54.5003 118C54.5003 117.9 54.5003 117.7 54.5003 117.5ZM66.1003 148.7C65.8003 148.7 65.5003 148.7 65.2003 148.7C67.9003 145.9 70.5003 143 73.1003 140.2C74.2003 139.9 75.4003 139.7 76.5003 139.4C74.6003 141.7 72.8003 144 71.0003 146.3C70.4003 147.1 69.8003 147.8 69.2003 148.6C68.2003 148.7 67.1003 148.8 66.1003 148.7ZM83.4003 147.4C83.2003 147.4 83.1003 147.4 82.9003 147.4C81.9003 147.5 81.0003 147.6 80.0003 147.7C81.1003 146.2 82.2003 144.6 83.4003 143.1C84.1003 142.2 84.8003 141.2 85.5003 140.2C85.8003 139.8 86.0003 139.5 86.3003 139.1C86.7003 138.5 87.2003 137.9 87.6003 137.2C88.5003 137.1 89.4003 136.9 90.2003 136.8C89.9003 137.2 89.6003 137.6 89.3003 138C89.0003 138.5 88.6003 139 88.3003 139.4C88.0003 139.8 87.8003 140.1 87.5003 140.5C86.8003 141.6 86.0003 142.8 85.3003 143.9C85.1003 144.2 84.9003 144.5 84.8003 144.8C84.4003 145.5 83.9003 146.2 83.5003 146.9C83.5003 147.2 83.5003 147.3 83.4003 147.4ZM76.8003 148.1C75.9003 148.2 75.0003 148.3 74.1003 148.3C77.2003 144.9 80.2003 141.5 83.3003 138.1C83.4003 138.1 83.6003 138.1 83.7003 138C84.4003 137.9 85.1003 137.8 85.8003 137.6C85.7003 137.7 85.6003 137.8 85.5003 138C85.1003 138.5 84.8003 139 84.4003 139.5C83.7003 140.5 82.9003 141.5 82.2003 142.4C80.8003 144.2 79.5003 146.1 78.1003 147.9C77.7003 148 77.2003 148 76.8003 148.1ZM70.7003 148.6C71.4003 147.7 72.1003 146.9 72.8003 146C73.5003 145.1 74.2003 144.2 75.0003 143.3C76.1003 141.9 77.3003 140.5 78.4003 139.1C78.6003 139 78.8003 139 79.1003 138.9C79.7003 138.8 80.4003 138.6 81.0003 138.5C79.4003 140.2 77.8003 142 76.3003 143.7C75.0003 145.1 73.7003 146.6 72.4003 148C72.3003 148.1 72.2003 148.3 72.2003 148.5C71.6003 148.5 71.2003 148.6 70.7003 148.6ZM88.5003 147.1C88.8003 146.8 89.1003 146.4 89.3003 146.1C89.9003 145.4 90.5003 144.7 91.1003 144C91.3003 143.7 91.5003 143.4 91.8003 143.2C91.3003 143.9 90.9003 144.7 90.5003 145.4C90.2003 146 90.2003 146.7 90.5003 147.2C89.8003 147.1 89.1003 147.1 88.5003 147.1ZM95.4003 138C95.4003 137.9 95.3003 137.8 95.2003 137.7C95.1003 137.6 95.0003 137.6 94.9003 137.6C94.7003 137.6 94.5003 137.7 94.4003 137.9C94.1003 138.3 93.9003 138.7 93.6003 139C93.4003 139.3 93.2003 139.5 93.0003 139.8C92.6003 140.3 92.2003 140.9 91.7003 141.4C91.1003 142.1 90.6003 142.8 90.0003 143.5C89.0003 144.7 88.0003 145.9 87.0003 147.1C86.9003 147.1 86.7003 147.1 86.6003 147.1C86.0003 147.1 85.5003 147.2 84.9003 147.2C85.4003 146.4 85.9003 145.5 86.4003 144.7C86.6003 144.3 86.9003 144 87.1003 143.6C87.6003 142.9 88.0003 142.2 88.4003 141.5C89.0003 140.6 89.6003 139.6 90.3003 138.7C90.6003 138.2 91.0003 137.8 91.3003 137.3C91.5003 137.1 91.6003 136.8 91.8003 136.6C93.4003 136.4 95.0003 136.2 96.5003 136C96.6003 136 96.6003 136 96.7003 136C96.4003 136.4 96.1003 136.8 95.8003 137.2C95.7003 137.5 95.5003 137.7 95.4003 138ZM26.9003 35.9C28.0003 34.6 29.1003 33.2 30.3003 31.9C31.6003 30.3 32.9003 28.8 34.1003 27.2C35.7003 25.1 37.3003 23 38.9003 21C40.0003 19.5 41.1003 18.1 42.2003 16.6C43.4003 15 44.5003 13.4 45.7003 11.8C46.4003 10.8 47.1003 9.8 47.8003 8.8C47.8003 8.7 47.9003 8.7 47.9003 8.6V8.5C48.0003 8.4 48.1003 8.3 48.1003 8.2C49.1003 9.5 51.0003 9.9 52.5003 9C52.5003 9 52.5003 9 52.6003 9C53.0003 8.9 53.5003 8.8 53.9003 8.7C57.2003 8.4 60.5003 8.9 63.7003 9.2C65.8003 9.4 67.8003 9.5 69.9003 9.7C72.9003 10 76.0003 10.1 79.0003 10.3C80.1003 10.4 81.2003 10.4 82.3003 10.4C82.8003 10.4 83.4003 10.4 83.9003 10.4C85.4003 10.4 86.9003 10.4 88.4003 10.3C89.8003 10.3 91.2003 10.2 92.6003 10.1C92.8003 10.1 93.0003 10.1 93.3003 10C93.3003 10.4 93.2003 10.8 93.2003 11.2C92.9003 14 92.6003 16.7 92.4003 19.5C92.3003 20.2 92.3003 20.9 92.3003 21.6C92.2003 23.3 92.1003 25.1 92.0003 26.8C91.9003 28.9 91.7003 31 91.7003 33.1C91.6003 36.1 91.6003 39.1 91.5003 42C91.5003 42.7 91.5003 43.5 91.5003 44.2C91.5003 46 91.5003 47.7 91.5003 49.5C91.5003 51.4 91.5003 53.4 91.6003 55.3C91.7003 58.4 91.9003 61.5 92.0003 64.5C92.1003 67 92.3003 69.5 92.4003 72C92.5003 74.4 92.8003 76.7 93.0003 79C93.4003 83.8 94.0003 88.5 94.7003 93.3C95.2003 97.2 95.8003 101.1 96.3003 105C96.9003 109.9 97.6003 114.9 98.2003 119.8C98.4003 120.9 98.5003 122.1 98.7003 123.2C98.8003 124 98.9003 124.7 99.0003 125.5C99.1003 126.1 99.2003 126.8 99.3003 127.4C99.1003 127.4 99.0003 127.4 98.8003 127.5C96.9003 127.7 95.0003 128 93.2003 128.3C91.6003 128.5 90.1003 128.7 88.5003 129C86.4003 129.4 84.4003 129.7 82.3003 130.1C80.9003 130.3 79.5003 130.5 78.1003 130.8C76.5003 131.2 74.9003 131.6 73.3003 131.9C71.0003 132.4 68.7003 133 66.4003 133.5C66.3003 133.5 66.1003 133.6 66.0003 133.6C65.9003 132.7 65.9003 131.9 65.8003 131C65.7003 129.7 65.6003 128.3 65.5003 127C65.3003 124.8 65.2003 122.6 65.1003 120.4C64.9003 115.3 64.8003 110.3 64.6003 105.2C64.5003 102.2 64.4003 99.2 64.3003 96.3C64.2003 93.7 64.0003 91 63.9003 88.4C63.8003 86.1 63.6003 83.7 63.4003 81.4C63.2003 79.1 63.0003 76.8 62.7003 74.5C62.5003 72.3 62.2003 70.1 62.0003 67.9C61.6003 65.1 61.3003 62.3 60.9003 59.5C60.4003 55.3 59.8003 51.1 59.2003 46.9C59.6003 46.3 60.0003 45.7 60.3003 45.1C61.0003 43.7 60.6003 42 59.3003 41.2C58.9003 40.9 58.4003 40.8 57.9003 40.8C56.9003 40.8 56.0003 41.3 55.4003 42.2C55.1003 42.7 54.8003 43.1 54.5003 43.6C52.2003 46.5 49.7003 49.2 47.3003 52C44.4003 55.3 41.3003 58.4 38.1003 61.4C35.7003 63.6 33.2003 65.8 30.6003 67.9C30.2003 67.3 29.8003 67 29.2003 66.8C29.3003 66.8 29.3003 66.8 29.4003 66.9C28.6003 66.5 27.8003 65.9 27.1003 65.4C26.7003 65.1 26.2003 64.8 25.8003 64.5C24.8003 63.8 23.7003 63.1 22.7003 62.4C21.0003 61.3 19.3003 60.1 17.6003 58.9C15.5003 57.2 13.5003 55.5 11.5003 53.7C16.6003 47.7 21.8003 41.9 26.9003 35.9ZM14.0003 63.1C14.1003 63.2 14.3003 63.3 14.4003 63.5C14.6003 63.7 14.9003 63.8 15.1003 64C13.9003 66.7 12.8003 69.5 11.6003 72.2C12.0003 70.6 12.5003 69 12.9003 67.4C13.3003 65.9 13.7003 64.5 14.0003 63.1ZM5.10029 70.8C5.40029 70.6 5.60029 70.3 5.70029 70C6.60029 66 7.30029 62 7.90029 58C9.10029 59.1 10.4003 60.2 11.7003 61.2C11.9003 61.4 12.2003 61.6 12.4003 61.8C11.9003 63.5 11.5003 65.1 11.0003 66.8C10.4003 69 9.80029 71.2 9.20029 73.4C8.70029 73.1 8.10029 72.7 7.60029 72.4C6.80029 71.8 6.00029 71.3 5.10029 70.8ZM13.0003 75.6C12.8003 75.4 12.5003 75.3 12.3003 75.1C13.2003 72.9 14.2003 70.7 15.1003 68.5C15.5003 67.5 15.9003 66.6 16.3003 65.6C16.4003 65.3 16.5003 65.1 16.6003 64.8C16.7003 64.9 16.9003 65 17.0003 65.1C17.6003 65.6 18.2003 66 18.9003 66.4C18.7003 67.1 18.6003 67.7 18.4003 68.4C18.3003 68.9 18.2003 69.3 18.0003 69.8C17.8003 70.3 17.7003 70.8 17.5003 71.3C16.9003 73.3 16.2003 75.2 15.6003 77.2C14.7003 76.8 13.8003 76.2 13.0003 75.6ZM16.5003 78C17.2003 75.9 17.9003 73.8 18.5003 71.7C18.7003 71.2 18.8003 70.7 19.0003 70.2C19.1003 69.8 19.2003 69.3 19.4003 68.8C19.5003 68.3 19.7003 67.7 19.8003 67.2C20.3003 67.5 20.8003 67.9 21.3003 68.2C21.5003 68.4 21.8003 68.5 22.0003 68.7C21.5003 69.8 21.0003 71 20.5003 72.1C20.5003 72.1 20.5003 72.1 20.5003 72C19.6003 74.1 18.7003 76.2 17.8003 78.3C17.7003 78.5 17.7003 78.7 17.7003 78.9C17.4003 78.6 17.0003 78.3 16.5003 78ZM27.9003 88.1L27.8003 88C27.9003 88 27.9003 87.9 28.0003 87.9C28.0003 88 28.0003 88 27.9003 88.1Z" fill="#5D06EA"/>
</g>
<defs>
<clipPath id="clip0">
<rect width="108.9" height="153.2" fill="white" transform="translate(0.000244141)"/>
</clipPath>
</defs>
</svg>
