<svg width="25" height="23" fill="none" xmlns="http://www.w3.org/2000/svg"><path d="M7.498 21.85l5.097-2.904 5.241 2.27 1.332-1.763-1.544-5.825 3.669-4.59.957-2.788-6.553.183-3.2-3.362-2.119-1.667-2.96 5.26-4.454 1.16-1.332 1.764.049 1.724 4.6 4.014.125 4.484 1.092 2.04z" fill="#FDE509"/><path d="M5.816 6.6c-1.804.258-6.1.807-5.51 3.532.342 1.582 1.763 2.622 2.95 3.53 1.465 1.135 2.348 1.775 2.093 3.79-.134 1-.147 1.997.017 3.003.444 2.825 2.957 2.34 4.734 1.113.848-.591 2.336-2.474 3.46-1.869 1.085.593 1.96 1.427 3.122 1.92.971.43 2.015.525 2.93-.054.77-.492.835-1.588.785-2.417-.134-2.377-2.945-4.776-.8-6.815.909-.87 6.236-5.103 3.069-6.744-1.22-.644-2.637-.55-3.968-.304-2.097.404-3.414 1.133-4.805-1.707-.487-.997-.97-1.855-1.801-2.58C8.74-1.925 7.639 6.078 5.816 6.6zm7.397-.29c.667.66 1.439 1.192 2.4 1.248 1.624.08 3.148-.503 4.767-.604 2.913-.192-.769 2.956-1.428 3.542-1.794 1.573-2.708 2.706-1.777 5.088.234.617 2.554 4.829.653 4.508-1.507-.262-2.707-1.613-4.01-2.324-2.197-1.212-4.181 2.235-5.918 2.962-1.268.534-.636-4.398-.607-4.786.06-.75-.386-1.734-.94-2.217-1.177-1.032-2.51-1.84-3.636-2.93-1.903-1.856 2.437-2.24 3.366-2.391.013 0 .027 0 .026-.015.068-.002.135-.017.202-.033 2.764-.714 2.538-3.006 3.69-5.294C11.116.887 12.67 5.77 13.213 6.31z" fill="#fff"/><path d="M8.605 8.695c-.633.586-1.5.513-2.163.947a.236.236 0 00.011.4c.77.464 1.931-.053 2.552-.555.846-.674 1.092-1.54 1.185-2.58.009-.153-.222-.202-.286-.075-.278.686-.773 1.364-1.3 1.863zm-.38 6.254c-.188.517-.227 1.044-.212 1.598.014.47-.066 1.012.242 1.405.057.081.166.106.244.02.315-.354.262-.782.25-1.238-.018-.623-.062-1.217-.254-1.807-.057-.122-.219-.104-.27.022zm7.022-3.574c-.636.917-.319 2.113.126 3.028.07.136.245.076.282-.05.26-.838-.076-1.742.498-2.491.573-.75 1.495-1.15 1.971-1.993.052-.085-.018-.18-.1-.178-1.067-.011-2.153.808-2.777 1.684zm.703 4.866c.141.19.548.22.58-.099.042-.388-.147-.868-.529-1.01-.082-.025-.162.02-.2.09-.167.309-.033.776.15 1.02z" fill="#fff"/></svg>