<svg width="47" height="56" fill="none" xmlns="http://www.w3.org/2000/svg"><path d="M16.467 47.91v-6.29l-3.57-4.078v-6.799c0-2.21 1.87-4.079 4.08-4.079h3.569c1.19 0 2.21 1.02 2.21 2.21v.17c0 1.02-.85 1.87-1.87 1.87h-2.89v1.699s.17 1.02 3.4 1.87c3.229.85 3.569 4.419 3.569 4.419m.85-20.906c1.36 0 2.55 1.19 2.55 2.55v7.988c0 1.36-1.19 2.55-2.55 2.55-1.36 0-2.55-1.19-2.55-2.55v-7.988c0-1.53 1.19-2.55 2.55-2.55z" stroke="#FD6709" stroke-width="2" stroke-miterlimit="10" stroke-linecap="round" stroke-linejoin="round"/><path d="M30.744 20.886c1.36 0 2.549 1.19 2.549 2.549v5.099c0 1.36-1.19 2.55-2.55 2.55-1.36 0-2.549-1.19-2.549-2.55v-5.099c0-1.53 1.19-2.55 2.55-2.55zm-12.408 5.268v-5.778c0-1.36 1.19-2.55 2.55-2.55 1.36 0 2.549 1.19 2.549 2.55v6.798" stroke="#FD6709" stroke-width="2" stroke-miterlimit="10" stroke-linecap="round" stroke-linejoin="round"/><path d="M13.408 28.024v-5.439c0-1.36 1.19-2.55 2.549-2.55 1.36 0 2.55 1.19 2.55 2.55v3.06m14.616 3.229v8.498s0 3.23-3.059 3.909v6.629" stroke="#FD6709" stroke-width="2" stroke-miterlimit="10" stroke-linecap="round" stroke-linejoin="round"/><path d="M36.182 47.91l6.629-8.159h-4.25L45.7 23.605l-7.648 1.7 2.55-14.107-8.499 3.399L23.095 1l-8.838 13.597-8.498-3.4 2.55 14.108L1 23.605 8.308 39.75H3.55l6.629 8.159m-1.871.001h29.404" stroke="#FD6709" stroke-width="2" stroke-miterlimit="10" stroke-linecap="round" stroke-linejoin="round"/><path d="M12.262 54.08a1.04 1.04 0 100-2.08 1.04 1.04 0 000 2.08zM5.4 55.12a1.04 1.04 0 100-2.08 1.04 1.04 0 000 2.08zm14.765.623a1.04 1.04 0 100-2.08 1.04 1.04 0 000 2.08zM32.85 54.08a1.04 1.04 0 100-2.08 1.04 1.04 0 000 2.08zm-6.863 1.04a1.04 1.04 0 100-2.08 1.04 1.04 0 000 2.08zm14.973.623a1.04 1.04 0 100-2.08 1.04 1.04 0 000 2.08z" fill="#FD6709"/></svg>