<svg width="36" height="36" fill="none" xmlns="http://www.w3.org/2000/svg"><path d="M17.995 35.13C8.62 35.13.965 27.386.965 17.903.964 8.419 8.619.675 17.996.675c9.376 0 17.031 7.744 17.031 17.228 0 9.483-7.655 17.227-17.032 17.227zm0-33.15c-8.687 0-15.74 7.135-15.74 15.923 0 8.787 7.053 15.922 15.74 15.922 8.688 0 15.742-7.135 15.742-15.922 0-8.788-7.054-15.923-15.742-15.923z" fill="#fff"/><path d="M26.941 22.602c0-.087-.086-.087-.086-.087-.344-.61-.946-1.306-1.892-2.176l-.774-.783c-.172-.26-.258-.522-.172-.783.086-.174.344-.609.86-1.305.258-.348.516-.609.602-.87 1.118-1.566 1.634-2.523 1.462-2.958l-.086-.087c0-.087-.172-.087-.344-.174s-.344-.087-.602 0h-3.183l-.086.087c0 .087-.086.087-.086.174a56.834 56.834 0 01-1.032 2.262c-.258.435-.43.783-.688 1.044-.172.261-.344.522-.516.696l-.344.348c-.086.087-.172.087-.258.087h-.172l-.258-.26c-.086-.088-.086-.262-.086-.349v-3.915c0-.087-.086-.174-.086-.348-.086-.087-.086-.174-.172-.261-.086-.087-.172-.087-.345-.174-.344-.087-.774-.087-1.376-.087-1.204 0-1.978.087-2.408.26a1.191 1.191 0 00-.344.262c-.086.174-.172.26-.086.26.43.088.688.175.86.436l.086.087c.086.087.086.26.172.435.086.26.086.435.086.696v1.218c0 .348-.086.609-.086.783a.669.669 0 01-.172.435c-.086.087-.086.174-.086.261l-.086.087c-.086 0-.172.087-.258.087-.086 0-.172-.087-.344-.174s-.258-.26-.43-.348c-.172-.174-.345-.435-.517-.696a5.827 5.827 0 01-.516-1.044l-.258-.261c-.086-.174-.258-.435-.43-.783-.172-.348-.344-.696-.43-1.044a1.198 1.198 0 00-.258-.348h-.086s-.086-.087-.172-.087-.172-.087-.258-.087H8.447c-.258 0-.43.087-.602.174v.261c0 .087 0 .174.086.26.43.958.86 1.828 1.29 2.698.43.87.86 1.566 1.205 2.088.344.522.688 1.044 1.032 1.48.344.434.602.782.688.87.086.173.172.26.258.26l.258.261c.172.175.43.349.688.61.345.26.689.435 1.033.696.344.174.774.435 1.29.522.516.174.946.174 1.462.174h1.118c.259 0 .43-.087.517-.261v-.087s.086-.087.086-.174v-.261c0-.262 0-.523.086-.784.086-.26.086-.435.172-.522.086-.087.172-.174.172-.26.086-.088.172-.088.172-.175h.086c.172-.087.344 0 .602.174.172.174.43.349.602.61.172.26.43.521.688.783.258.26.516.522.688.609l.172.087.516.26c.172.088.43.088.516.088h2.495c.258 0 .43 0 .602-.087s.258-.174.258-.261v-.348c.258-.174.258-.261.258-.261z" fill="#fff"/></svg>