<svg width="35" height="35" fill="none" xmlns="http://www.w3.org/2000/svg"><path d="M17.968 34.455C8.592 34.455.937 26.71.937 17.227S8.592 0 17.968 0C27.344 0 35 7.744 35 17.227c0 9.484-7.656 17.228-17.032 17.228zm0-33.15c-8.687 0-15.741 7.135-15.741 15.922 0 8.788 7.054 15.923 15.741 15.923 8.688 0 15.742-7.135 15.742-15.923 0-8.787-7.054-15.922-15.742-15.922z" fill="#fff"/><path d="M17.882 22.448c-1.72 0-3.44 0-5.16-.087-.517 0-1.119-.087-1.635-.348a1.698 1.698 0 01-.774-.783c-.258-.61-.344-1.218-.43-1.914-.086-1.305-.086-2.697-.086-4.003 0-.696.086-1.392.258-2.088l.258-.783c.258-.609.774-.87 1.462-1.044.516-.087 1.032-.087 1.548-.087 1.807-.087 3.613-.087 5.42-.087 1.376 0 2.752.087 4.128.087.43 0 .86 0 1.29.174.517.174.947.522 1.205 1.131.258.522.258 1.131.344 1.653a44.404 44.404 0 010 4.786c0 .522-.086 1.044-.172 1.566-.344 1.218-1.032 1.653-2.15 1.74-1.205.087-2.323.087-3.527.174-.602-.087-1.29-.087-1.979-.087zm-1.72-3.306l4.645-2.61-4.645-2.61v5.22z" fill="#fff"/></svg>